<svg width="25" height="30" viewBox="0 0 25 30" fill="none" xmlns="http://www.w3.org/2000/svg">
<path d="M18 0H7V30H18V0Z" fill="#AAB7D9"/>
<path d="M21 24H4C2.89543 24 2 24.8954 2 26V28C2 29.1046 2.89543 30 4 30H21C22.1046 30 23 29.1046 23 28V26C23 24.8954 22.1046 24 21 24Z" fill="#AAB7D9"/>
<path d="M12.067 19.25C12.2594 19.5833 12.7406 19.5833 12.933 19.25L15.9641 14C16.1566 13.6667 15.916 13.25 15.5311 13.25H9.46891C9.08401 13.25 8.84345 13.6667 9.0359 14L12.067 19.25Z" fill="white"/>
</svg>
