<?xml version="1.0"?>
<svg width="40" height="40" xmlns="http://www.w3.org/2000/svg" xmlns:svg="http://www.w3.org/2000/svg">
 <g class="layer">
  <title>Layer 1</title>
  <path d="m38.535301,15.115l-12.641701,-12.64331c-1.5646,-1.56002 -3.683901,-2.43605 -5.893301,-2.43605c-2.209499,0 -4.328799,0.87603 -5.893399,2.43605l-12.64164,12.64331c-0.46595,0.463 -0.83538,1.013901 -1.08686,1.620701c-0.25148,0.6068 -0.38001,1.2575 -0.37814,1.914299l0,16.3617c0,1.326099 0.52679,2.597801 1.46447,3.5355c0.93768,0.937702 2.20945,1.4645 3.53554,1.4645l30.000031,0c1.326099,0 2.597797,-0.526798 3.5355,-1.4645c0.937698,-0.937698 1.4645,-2.2094 1.4645,-3.5355l0,-16.3617c0.001801,-0.656799 -0.126701,-1.307499 -0.378201,-1.914299c-0.2514,-0.6068 -0.620899,-1.157701 -1.0868,-1.620701zm-13.535002,21.563398l-9.999999,0l0,-6.556698c0,-1.326099 0.526799,-2.5979 1.4644,-3.5355c0.9377,-0.9377 2.209499,-1.4645 3.535599,-1.4645c1.326,0 2.597801,0.5268 3.535501,1.4645c0.937698,0.937599 1.464499,2.2094 1.464499,3.5355l0,6.556698zm11.666601,-1.666698c0,0.442001 -0.175602,0.865902 -0.488102,1.178501c-0.312599,0.312599 -0.7365,0.488197 -1.178497,0.488197l-6.666702,0l0,-6.556698c0,-2.2101 -0.877998,-4.3298 -2.4408,-5.892601c-1.562799,-1.562799 -3.6824,-2.440699 -5.8925,-2.440699c-2.210199,0 -4.3298,0.877899 -5.892599,2.440699c-1.5628,1.562801 -2.440801,3.682501 -2.440801,5.892601l0,6.556698l-6.66663,0c-0.44203,0 -0.86596,-0.175598 -1.17852,-0.488197c-0.31256,-0.312599 -0.48815,-0.7365 -0.48815,-1.178501l0,-16.3617c0.00154,-0.4417 0.17698,-0.865 0.48833,-1.178299l12.64167,-12.63835c0.939499,-0.93511 2.2111,-1.46009 3.536699,-1.46009c1.3255,0 2.597101,0.52498 3.5366,1.46009l12.641701,12.64335c0.310101,0.312099 0.4855,0.7334 0.4883,1.1733l0,16.3617z" fill="#f7941e" id="svg_1"/>
 </g>
</svg>