<?xml version="1.0"?>
<svg width="36" height="40" xmlns="http://www.w3.org/2000/svg" xmlns:svg="http://www.w3.org/2000/svg">
 <g class="layer">
  <title>Layer 1</title>
  <path d="m33.490101,23.1667l-0.740002,-0.426701c0.333099,-1.812599 0.333099,-3.6707 0,-5.483299l0.740002,-0.426701c0.569,-0.3283 1.067898,-0.765499 1.467999,-1.2866c0.400101,-0.521 0.6936,-1.1158 0.863899,-1.7504c0.1702,-0.634501 0.213802,-1.2964 0.1283,-1.947701c-0.085598,-0.6514 -0.298599,-1.2796 -0.6269,-1.84863c-0.328297,-0.569059 -0.765499,-1.06789 -1.286598,-1.467999c-0.521,-0.40011 -1.115799,-0.69366 -1.750401,-0.8639c-0.634501,-0.17024 -1.296299,-0.21383 -1.947701,-0.12829c-0.6514,0.08554 -1.2796,0.29855 -1.848598,0.62685l-0.741701,0.42834c-1.400799,-1.19681 -3.0105,-2.12459 -4.748301,-2.73667l0,-0.855c0,-1.32608 -0.526798,-2.59785 -1.464499,-3.53553c-0.9377,-0.937686 -2.2094,-1.46447 -3.535501,-1.46447c-1.326099,0 -2.597899,0.526784 -3.535599,1.46447c-0.9376,0.93768 -1.4644,2.20945 -1.4644,3.53553l0,0.855c-1.7377,0.61428 -3.346948,1.54433 -4.74669,2.74333l-0.745,-0.43166c-1.14928,-0.66304 -2.51487,-0.84238 -3.79637,-0.49857c-1.2815,0.34382 -2.37393,1.18263 -3.036968,2.3319c-0.663042,1.1493 -0.84238,2.5149 -0.498563,3.7964c0.343816,1.2815 1.182621,2.373899 2.331891,3.0369l0.74,0.426701c-0.33315,1.812599 -0.33315,3.6707 0,5.483299l-0.74,0.426701c-1.14927,0.663 -1.988075,1.755501 -2.331891,3.037001c-0.343817,1.2815 -0.164479,2.647099 0.498563,3.796299c0.663038,1.1493 1.755468,1.9881 3.036968,2.331902c1.2815,0.3438 2.64709,0.164497 3.79637,-0.498501l0.74166,-0.4284c1.40128,1.197001 3.01163,2.1248 4.750031,2.7367l0,0.855c0,1.326099 0.5268,2.5979 1.4644,3.5355c0.937699,0.937702 2.209499,1.4645 3.535599,1.4645c1.326101,0 2.597801,-0.526798 3.535501,-1.4645c0.9377,-0.937599 1.464499,-2.2094 1.464499,-3.5355l0,-0.855c1.737701,-0.6143 3.346901,-1.5443 4.746601,-2.743301l0.744999,0.43c1.149302,0.663002 2.5149,0.8423 3.796402,0.498501c1.281498,-0.3438 2.373898,-1.1826 3.036999,-2.3319c0.662998,-1.1492 0.8424,-2.514801 0.498501,-3.796301c-0.3438,-1.2815 -1.182602,-2.374001 -2.331902,-3.036999l-0.001598,0.001699zm-4.2467,-6.2934c0.5644,2.045099 0.5644,4.204899 0,6.25c-0.098501,0.355999 -0.076101,0.7346 0.0639,1.076399c0.139999,0.341801 0.3895,0.627401 0.7094,0.812l1.8067,1.043301c0.383001,0.221001 0.6626,0.5851 0.777098,1.012199c0.114601,0.4272 0.054802,0.882301 -0.166298,1.265301c-0.221001,0.382999 -0.5851,0.6625 -1.012199,0.7771c-0.427101,0.114599 -0.8822,0.054701 -1.265301,-0.1663l-1.809999,-1.0466c-0.320101,-0.185499 -0.6929,-0.2591 -1.059601,-0.209299c-0.3666,0.049799 -0.7062,0.2202 -0.965401,0.484299c-1.483398,1.5144 -3.352299,2.5949 -5.404999,3.125c-0.3582,0.0921 -0.675701,0.3008 -0.9023,0.593201c-0.226601,0.2924 -0.349501,0.651798 -0.3493,1.021801l0,2.088299c0,0.442001 -0.1756,0.866001 -0.488199,1.178501c-0.3125,0.312599 -0.736502,0.488197 -1.178501,0.488197c-0.441999,0 -0.8659,-0.175598 -1.178499,-0.488197c-0.312601,-0.3125 -0.488201,-0.7365 -0.488201,-1.178501l0,-2.0867c0.0002,-0.3699 -0.1227,-0.729401 -0.349299,-1.021799c-0.2266,-0.2924 -0.544,-0.501101 -0.9023,-0.593201c-2.0528,-0.5322 -3.9211,-1.615 -5.40336,-3.131599c-0.25913,-0.264101 -0.59877,-0.4345 -0.965409,-0.484301c-0.366631,-0.049799 -0.73942,0.0238 -1.05959,0.209301l-1.80667,1.045c-0.18962,0.111099 -0.39935,0.183699 -0.61712,0.213499c-0.21778,0.029699 -0.43929,0.0161 -0.65179,-0.039999c-0.2125,-0.0562 -0.41178,-0.1539 -0.58639,-0.287401c-0.1746,-0.133499 -0.32107,-0.3002 -0.43097,-0.490601c-0.1099,-0.1903 -0.18107,-0.400499 -0.2094,-0.6185c-0.02833,-0.217999 -0.01327,-0.4394 0.04432,-0.651499c0.05759,-0.212101 0.15657,-0.410801 0.29124,-0.584501c0.13467,-0.173698 0.30237,-0.319099 0.49345,-0.4277l1.80666,-1.043299c0.31992,-0.184601 0.56946,-0.470201 0.70943,-0.812c0.13998,-0.341801 0.16246,-0.7204 0.06391,-1.076401c-0.56441,-2.045099 -0.56441,-4.204899 0,-6.25c0.09677,-0.3552 0.07322,-0.732399 -0.06698,-1.0728c-0.1402,-0.3404 -0.38916,-0.6248 -0.70802,-0.8088l-1.80667,-1.0434c-0.38302,-0.221001 -0.66255,-0.5851 -0.7771,-1.0122c-0.11456,-0.4271 -0.05475,-0.882299 0.16626,-1.2653c0.22102,-0.383 0.58513,-0.6625 1.01225,-0.7771c0.42711,-0.1145 0.88224,-0.054701 1.26525,0.1663l1.81,1.0467c0.3193,0.185801 0.69131,0.260301 1.05755,0.2117c0.36625,-0.0485 0.70597,-0.217401 0.96579,-0.480101c1.48346,-1.5144 3.352361,-2.59493 5.404961,-3.124969c0.3594,-0.09239 0.6777,-0.30208 0.9044,-0.59583c0.2268,-0.29375 0.349,-0.65476 0.347301,-1.02583l0,-2.08667c0,-0.44203 0.1756,-0.86595 0.488199,-1.17851c0.3125,-0.31256 0.736401,-0.48816 1.178499,-0.48816c0.442001,0 0.8659,0.1756 1.178501,0.48816c0.3125,0.31256 0.4881,0.73648 0.4881,1.17851l0,2.08667c-0.000101,0.36993 0.1227,0.7294 0.3494,1.0218c0.226601,0.29239 0.544001,0.501081 0.9023,0.5932c2.0534,0.53192 3.9223,1.61483 5.405001,3.13163c0.2591,0.2641 0.598799,0.434501 0.965399,0.484301c0.366701,0.0498 0.739401,-0.0238 1.059601,-0.2093l1.8067,-1.045c0.1896,-0.1111 0.3993,-0.183701 0.6171,-0.2135c0.2178,-0.0297 0.439301,-0.0161 0.6518,0.04c0.2125,0.0562 0.4118,0.1539 0.586399,0.2874c0.174603,0.1335 0.321003,0.3002 0.430901,0.4906c0.110001,0.1903 0.181099,0.4005 0.2094,0.6185c0.0284,0.218 0.013302,0.439401 -0.0443,0.651501c-0.057598,0.2121 -0.156498,0.4108 -0.291199,0.584499c-0.134701,0.1737 -0.302402,0.3191 -0.493502,0.4277l-1.806599,1.043301c-0.3183,0.1845 -0.5665,0.469199 -0.7061,0.8095c-0.139601,0.3404 -0.162701,0.717401 -0.065599,1.0722l0,-0.001699z" fill="#f7941e" id="svg_1"/>
 </g>
</svg>