<svg width="50" height="50" viewBox="0 0 50 50" fill="none" xmlns="http://www.w3.org/2000/svg">
<path d="M24.9977 25C26.6459 25 28.257 24.5113 29.6274 23.5956C30.9978 22.6799 32.0659 21.3784 32.6967 19.8557C33.3274 18.333 33.4924 16.6574 33.1709 15.0409C32.8493 13.4244 32.0557 11.9395 30.8902 10.7741C29.7248 9.60867 28.2399 8.815 26.6234 8.49346C25.0069 8.17191 23.3314 8.33694 21.8086 8.96767C20.2859 9.5984 18.9844 10.6665 18.0688 12.0369C17.1531 13.4073 16.6643 15.0185 16.6643 16.6667C16.6643 18.8768 17.5423 20.9964 19.1051 22.5592C20.6679 24.122 22.7875 25 24.9977 25ZM24.9977 12.5C25.8218 12.5 26.6273 12.7444 27.3126 13.2022C27.9978 13.66 28.5318 14.3108 28.8472 15.0722C29.1625 15.8335 29.2451 16.6713 29.0843 17.4795C28.9235 18.2878 28.5267 19.0302 27.944 19.6129C27.3612 20.1957 26.6188 20.5925 25.8106 20.7533C25.0023 20.914 24.1645 20.8315 23.4032 20.5162C22.6418 20.2008 21.9911 19.6667 21.5332 18.9815C21.0754 18.2963 20.831 17.4908 20.831 16.6667C20.831 15.5616 21.27 14.5018 22.0514 13.7204C22.8328 12.939 23.8926 12.5 24.9977 12.5ZM43.0393 19.0771L41.5414 18.5792C41.811 16.2457 41.5842 13.8816 40.876 11.6418C40.1678 9.40213 38.9942 7.33742 37.432 5.58311C35.8699 3.82879 33.9546 2.4245 31.8117 1.46232C29.6688 0.50014 27.3467 0.00180725 24.9977 0C22.618 0.000918686 20.2662 0.511863 18.1006 1.49841C15.9351 2.48495 14.0061 3.92418 12.4438 5.71912C10.8814 7.51406 9.72186 9.62301 9.04332 11.9039C8.36478 14.1848 8.18298 16.5846 8.51018 18.9417C6.51649 19.3134 4.67294 20.254 3.20184 21.65C2.18345 22.6182 1.37386 23.7845 0.822838 25.0772C0.271815 26.3698 -0.00899427 27.7615 -0.00232535 29.1667V37.6562C0.00205297 39.909 0.734741 42.1 2.08641 43.9022C3.43807 45.7044 5.33624 47.0213 7.49768 47.6562L13.4768 49.5312C14.4811 49.8438 15.5271 50.0019 16.5789 50C17.5331 49.9988 18.4827 49.8684 19.4018 49.6125L31.4435 46.05C32.5163 45.7572 33.6479 45.7572 34.7206 46.05L39.6935 47.7167C40.9191 48.015 42.1965 48.0312 43.4293 47.764C44.6621 47.4969 45.8181 46.9533 46.8103 46.1744C47.8025 45.3955 48.6049 44.4015 49.157 43.2673C49.7091 42.1332 49.9966 40.8885 49.9977 39.6271V28.9C49.9929 26.7446 49.3217 24.6434 48.076 22.8845C46.8302 21.1255 45.071 19.7949 43.0393 19.075V19.0771ZM16.1602 7.8375C17.319 6.67394 18.6963 5.75067 20.2128 5.12069C21.7294 4.49071 23.3555 4.16641 24.9977 4.16641C26.6399 4.16641 28.2659 4.49071 29.7825 5.12069C31.2991 5.75067 32.6763 6.67394 33.8352 7.8375C36.173 10.1899 37.4871 13.3705 37.4914 16.6869C37.4957 20.0034 36.1898 23.1874 33.8581 25.5458L26.456 32.7437C26.0697 33.1225 25.5502 33.3347 25.0091 33.3347C24.4681 33.3347 23.9486 33.1225 23.5623 32.7437L16.1602 25.5771C13.8174 23.2196 12.5025 20.0309 12.5025 16.7073C12.5025 13.3837 13.8174 10.195 16.1602 7.8375ZM45.831 39.6271C45.8323 40.2581 45.6896 40.8811 45.4138 41.4486C45.1379 42.0161 44.7363 42.5132 44.2393 42.9021C43.7698 43.2796 43.2228 43.5491 42.6374 43.6913C42.0519 43.8335 41.4423 43.845 40.8518 43.725L35.9664 42.0833C34.1185 41.5524 32.16 41.5409 30.306 42.05L18.256 45.6083C17.0982 45.9277 15.873 45.9067 14.7268 45.5479L8.69768 43.6729C7.39278 43.2956 6.2455 42.5051 5.42809 41.4202C4.61067 40.3354 4.16723 39.0146 4.16434 37.6562V29.1667C4.15966 28.3245 4.32728 27.4904 4.65689 26.7154C4.9865 25.9405 5.47114 25.2411 6.08101 24.6604C7.03571 23.7505 8.25188 23.1632 9.55809 22.9812C10.3979 25.0629 11.6485 26.954 13.2352 28.5417L20.6664 35.7354C21.8279 36.8727 23.3888 37.5097 25.0143 37.5097C26.6399 37.5097 28.2008 36.8727 29.3623 35.7354L36.7852 28.5208C38.4472 26.8522 39.7347 24.8487 40.5623 22.6437L41.681 23.0146C42.8943 23.4493 43.9439 24.2478 44.6866 25.3011C45.4293 26.3544 45.8289 27.6112 45.831 28.9V39.6271Z" fill="#034EA2"/>
</svg>
