<svg width="169" height="196" viewBox="0 0 169 196" fill="none" xmlns="http://www.w3.org/2000/svg">
<path fill-rule="evenodd" clip-rule="evenodd" d="M168.52 89.9998C168.781 86.4805 168.77 82.9316 168.483 79.3841C167.378 65.7713 162.236 52.7979 153.716 42.1241L166.419 29.4128C167.152 28.7055 167.736 27.8596 168.137 26.9242C168.539 25.9888 168.751 24.9828 168.76 23.9648C168.768 22.9469 168.574 21.9373 168.189 20.9951C167.804 20.0529 167.234 19.1969 166.514 18.4771C165.795 17.7572 164.939 17.188 163.996 16.8025C163.054 16.417 162.045 16.223 161.027 16.2318C160.009 16.2407 159.003 16.4522 158.067 16.854C157.132 17.2558 156.286 17.8399 155.579 18.5721L142.86 31.2911C131.768 22.3842 118.159 17.185 103.953 16.4271C89.7478 15.6691 75.663 19.3907 63.686 27.0668L19.4724 54.4061C14.2934 57.6067 9.9056 61.9376 6.63769 67.0744C3.36978 72.2112 1.30641 78.0208 0.602122 84.0681C-0.102169 90.1154 0.570867 96.2437 2.57083 101.994C4.57079 107.744 7.84583 112.968 12.1507 117.273L22.2324 127.339C17.1531 134.388 14.7666 143.023 15.5053 151.679C16.244 160.336 20.0591 168.442 26.2593 174.528C32.4594 180.614 40.6346 184.278 49.3034 184.856C57.9723 185.434 66.5615 182.888 73.5147 177.678C73.6757 177.792 73.8375 177.905 74 178.016V157.44L22.999 106.432C20.3289 103.762 18.2974 100.522 17.0568 96.956C15.8162 93.3895 15.3985 89.5885 15.8351 85.8378C16.2717 82.087 17.5512 78.4836 19.5778 75.2974C21.6045 72.1112 24.3257 69.4248 27.5377 67.4394L71.828 40.1001C82.0051 33.5586 94.1198 30.7104 106.145 32.032C118.171 33.3536 129.378 38.7649 137.892 47.3604V47.3221C146.059 55.5016 151.339 66.1193 152.933 77.5678C153.509 81.7125 153.592 85.8845 153.195 89.9998H168.52ZM33.3184 138.44L61.8307 166.96C57.8248 169.053 53.2648 169.841 48.7889 169.214C44.3129 168.588 40.1449 166.577 36.868 163.464C33.6196 160.256 31.5133 156.071 30.8721 151.551C30.2309 147.031 31.0903 142.425 33.3184 138.44ZM3.65964 43.8482C4.86309 44.5944 6.24969 44.9928 7.6657 44.9991C8.85916 44.9946 10.0351 44.7116 11.0999 44.1726C12.1647 43.6335 13.0889 42.8533 13.799 41.8941C24.0358 28.1832 39.1832 18.9679 56.0654 16.1801C58.058 15.7734 59.8075 14.5918 60.929 12.8953C62.0505 11.1987 62.452 9.12609 62.0454 7.13343C61.6387 5.14077 60.4571 3.39127 58.7605 2.26981C57.0639 1.14834 54.9914 0.746767 52.9987 1.15343C32.443 4.75924 14.0365 16.0696 1.53236 32.7784C0.691231 33.9176 0.182013 35.2674 0.0611736 36.6783C-0.0596662 38.0891 0.212593 39.5059 0.847764 40.7715C1.48294 42.037 2.4562 43.102 3.65964 43.8482Z" fill="#A0CDFF"/>
<ellipse cx="70" cy="168" rx="8" ry="12" fill="#A0CDFF"/>
<ellipse cx="161" cy="88.5" rx="8" ry="6.5" fill="#A0CDFF"/>
<path d="M166.401 102.599C164.736 100.935 162.479 100 160.125 100C157.771 100 155.514 100.935 153.849 102.599L129.055 127.392L104.262 102.599C102.588 100.982 100.346 100.087 98.018 100.108C95.6905 100.128 93.464 101.061 91.8182 102.707C90.1723 104.353 89.2387 106.58 89.2185 108.907C89.1983 111.235 90.093 113.477 91.71 115.151L116.503 139.945L91.71 164.738C90.8622 165.557 90.1859 166.536 89.7207 167.619C89.2555 168.702 89.0106 169.867 89.0003 171.046C88.9901 172.225 89.2147 173.393 89.661 174.484C90.1074 175.575 90.7665 176.567 91.6 177.4C92.4335 178.233 93.4246 178.893 94.5156 179.339C95.6065 179.785 96.7754 180.01 97.9541 180C99.1328 179.989 100.298 179.745 101.381 179.279C102.464 178.814 103.443 178.138 104.262 177.29L129.055 152.497L153.849 177.29C155.523 178.907 157.765 179.802 160.093 179.782C162.42 179.761 164.647 178.828 166.293 177.182C167.939 175.536 168.872 173.31 168.892 170.982C168.913 168.654 168.018 166.412 166.401 164.738L141.608 139.945L166.401 115.151C168.065 113.486 169 111.229 169 108.875C169 106.521 168.065 104.264 166.401 102.599Z" fill="#A0CDFF"/>
</svg>
