<svg width="119" height="162" viewBox="0 0 119 162" fill="none" xmlns="http://www.w3.org/2000/svg">
<path d="M102.081 147.994C103.146 147.968 102.641 154.863 101.508 155.803C100.327 156.783 93.756 157.424 91.9927 156.731C89.495 155.748 88.1378 151.529 89.9575 150.404C90.6293 149.989 100.448 148.037 102.081 147.994ZM17.481 147.994C19.114 148.037 28.9341 149.989 29.606 150.404C30.699 151.08 30.6049 153.801 29.434 155.403C28.7313 156.364 27.3292 156.802 24.3012 157.004C18.5325 157.389 16.9497 156.199 16.9497 151.481C16.9497 149.556 17.189 147.986 17.481 147.994ZM26.7407 120.446C27.7459 120.472 28.8024 120.936 29.9517 121.84C32.2777 123.67 32.473 127.188 30.3735 129.442C28.4123 131.547 25.1468 131.465 22.936 129.254C20.7149 127.033 20.7386 125.274 23.0298 122.551C24.2402 121.113 25.4484 120.414 26.7407 120.446ZM93.0884 120.372C94.9734 120.372 98.3638 124.07 98.3638 126.124C98.3638 126.89 97.5832 128.299 96.6274 129.254C93.1362 132.746 87.7447 130.528 87.7447 125.6C87.7447 122.981 90.4115 120.372 93.0884 120.372ZM93.2562 116.127C87.2412 116.12 83.3343 120.011 83.3343 126.006C83.3343 129.802 84.8411 132.642 87.6703 134.18C90.5537 135.747 96.3959 135.523 98.6371 133.76C105.91 128.039 102.278 116.136 93.2562 116.127ZM26.6273 116.127C17.3063 116.135 13.4974 127.917 20.9262 133.76C22.2531 134.804 23.8271 135.239 26.2836 135.239C32.7056 135.239 36.2289 131.969 36.2289 126.006C36.2289 120.019 32.4413 116.122 26.6273 116.127ZM24.1331 50.2838H59.7816H95.4301L96.9281 52.1882C98.3834 54.0383 98.4214 54.6501 98.2191 73.3542C98.0267 91.134 97.9073 92.7296 96.6625 94.1042C95.3259 95.5798 94.9955 95.5924 59.7816 95.5924C24.5677 95.5924 24.2373 95.5811 22.9007 94.1042C21.6557 92.7296 21.5364 91.134 21.3441 73.3542C21.1419 54.6501 21.1778 54.0383 22.6332 52.1882L24.1331 50.2838ZM59.7816 45.9245C44.5975 45.9245 29.5731 46.1774 23.809 46.6764H23.6271L23.6083 46.6954C22.4536 46.8004 21.5602 46.9123 21.3153 47.0389C17.4547 49.0353 17.3056 50.0143 17.3056 73.2244C17.3056 93.4204 17.3773 94.6325 18.7196 96.451C19.4983 97.5062 21.2513 98.8421 22.6141 99.4217C24.6903 100.305 30.6844 100.483 59.5906 100.514C97.2986 100.554 97.8538 100.498 100.843 96.4491C102.185 94.6312 102.259 93.4206 102.259 73.2244C102.259 50.0143 102.109 49.0353 98.2489 47.0389C98.0418 46.9316 97.3903 46.8337 96.5223 46.7422L96.4482 46.6776H95.753C89.9888 46.1784 74.9663 45.9256 59.7822 45.9256L59.7816 45.9245ZM52.303 33.3952C46.3582 33.4028 45.0885 33.6473 44.8226 34.3405C44.5954 34.9325 44.5954 35.9009 44.8226 36.4928C45.1771 37.4169 47.3159 37.542 59.9417 37.3776L74.6488 37.1864V35.4169V33.6473L59.9417 33.4561C56.7853 33.4149 54.2847 33.3922 52.303 33.3952ZM59.7816 25.9381C73.8354 25.9116 77.6092 26.4267 93.055 30.483C96.17 31.301 99.677 32.2166 100.848 32.5182C103.908 33.3061 106.003 34.7739 106.452 36.4439C106.666 37.2419 106.844 60.3059 106.85 87.6978C106.858 132.627 106.745 137.743 105.686 139.975C104.314 142.866 103.634 143.181 95.178 144.848C89.8657 145.896 84.393 146.129 62.2582 146.251C34.0447 146.405 34.0056 146.403 24.7366 144.735C15.8878 143.142 16.0063 143.184 14.4731 141.077C13.0938 139.181 13.0512 137.84 12.85 89.2213C12.7363 61.7705 12.816 38.3521 13.0276 37.1803C13.437 34.9071 15.268 33.4058 18.7152 32.5182C19.8861 32.2165 23.3931 31.296 26.5081 30.4732C41.2186 26.5878 45.7776 25.9662 59.7816 25.9381ZM60.887 0.727295C58.0511 0.727295 58.5208 3.33169 62.9222 12.0203C65.2835 16.6817 67.2152 20.6419 67.2152 20.8191C67.2152 20.9963 63.2366 21.1592 58.3753 21.1823L49.5375 21.2231L44.3949 11.1528C40.368 3.26772 38.9428 1.08053 37.8343 1.08053C35.1887 1.08053 35.8104 4.06213 40.3011 12.9106C44.8443 21.8624 44.9135 22.6376 41.1703 22.6626C37.4665 22.689 14.8786 28.6452 12.2328 30.2954C9.94394 31.7229 8.45549 35.5033 8.45549 39.8872C8.45549 43.7419 8.412 43.8235 4.98865 46.3364C3.08207 47.736 1.3291 49.3823 1.09413 49.9946C0.859041 50.6069 0.666382 54.9989 0.666382 59.7563C0.666382 68.6216 1.08266 70.1059 3.56487 70.1059C5.33648 70.1059 5.62344 68.6853 5.62344 59.893C5.62344 52.8563 5.78597 51.7696 7.01798 50.6548C8.40571 49.3989 8.41594 49.6625 8.61172 95.3794L8.80901 141.366L10.7563 143.918C12.4596 146.151 12.7016 147.102 12.7016 151.52C12.7016 157.412 13.4046 159.063 16.475 160.399C17.7099 160.936 20.7917 161.388 23.3226 161.403C30.8161 161.446 34.6138 158.665 34.639 153.114L34.6504 150.813H59.7833H84.9141L84.9255 153.114C84.9519 158.602 88.7443 161.428 96.0876 161.43C101.114 161.431 104.965 160.111 106.095 157.999C106.516 157.212 106.861 154.297 106.861 151.52C106.861 147.102 107.105 146.151 108.808 143.918L110.756 141.366L110.951 95.3794C111.147 49.6625 111.157 49.3989 112.545 50.6548C113.777 51.7696 113.941 52.8563 113.941 59.893C113.941 68.6853 114.226 70.1059 115.998 70.1059C118.48 70.1059 118.896 68.6216 118.896 59.7563C118.896 54.9989 118.703 50.6069 118.468 49.9946C118.233 49.3823 116.483 47.736 114.576 46.3364C111.162 43.8301 111.109 43.7341 111.109 39.936C111.109 32.7843 109.21 30.3576 101.906 28.1801C95.6984 26.3295 80.6567 22.8466 76.5662 22.313L72.817 21.8247L67.5338 11.2758C63.4701 3.16203 61.936 0.727295 60.887 0.727295Z" fill="#034EA2"/>
</svg>
