<svg width="40" height="40" viewBox="0 0 40 40" fill="none" xmlns="http://www.w3.org/2000/svg">
<path d="M39.7263 14.6574C39.3853 13.5722 38.7042 12.6256 37.7837 11.9575C36.8631 11.2893 35.752 10.9352 34.6146 10.9474H27.3329L25.1213 4.05407C24.7735 2.969 24.09 2.02243 23.1695 1.35085C22.249 0.679265 21.139 0.317383 19.9996 0.317383C18.8601 0.317383 17.7501 0.679265 16.8296 1.35085C15.9091 2.02243 15.2257 2.969 14.8779 4.05407L12.6663 10.9474H5.38459C4.25083 10.949 3.14657 11.3089 2.22956 11.9756C1.31254 12.6423 0.629657 13.5817 0.278458 14.6597C-0.0727408 15.7377 -0.0742953 16.8991 0.274017 17.9781C0.622329 19.057 1.30269 19.9983 2.21792 20.6674L8.14459 25.0007L5.89126 31.9791C5.52711 33.0614 5.52249 34.2324 5.8781 35.3176C6.23371 36.4027 6.9305 37.3439 7.86459 38.0007C8.78268 38.6787 9.89524 39.0419 11.0365 39.0362C12.1778 39.0305 13.2867 38.6562 14.1979 37.9691L19.9996 33.6991L25.8029 37.9641C26.7193 38.6382 27.8259 39.0043 28.9635 39.0098C30.1012 39.0154 31.2112 38.66 32.1342 37.9949C33.0571 37.3298 33.7454 36.3891 34.1001 35.3082C34.4547 34.2272 34.4575 33.0617 34.1079 31.9791L31.8546 25.0007L37.7879 20.6674C38.7136 20.0067 39.402 19.0654 39.7511 17.983C40.1002 16.9006 40.0915 15.7345 39.7263 14.6574ZM35.8213 17.9757L28.9146 23.0241C28.6309 23.231 28.4198 23.5223 28.3115 23.8563C28.2031 24.1903 28.2031 24.55 28.3113 24.8841L30.9363 33.0007C31.0691 33.4124 31.0679 33.8556 30.933 34.2666C30.7981 34.6776 30.5363 35.0352 30.1853 35.288C29.8343 35.5409 29.4122 35.6759 28.9796 35.6737C28.547 35.6715 28.1263 35.5321 27.7779 35.2757L20.9863 30.2757C20.7002 30.0656 20.3545 29.9523 19.9996 29.9523C19.6446 29.9523 19.299 30.0656 19.0129 30.2757L12.2213 35.2757C11.8731 35.5356 11.4512 35.6778 11.0167 35.6817C10.5822 35.6857 10.1578 35.5512 9.80497 35.2977C9.45212 35.0442 9.18917 34.6849 9.05425 34.2719C8.91933 33.8589 8.91945 33.4137 9.05459 33.0007L11.6879 24.8841C11.7961 24.55 11.796 24.1903 11.6877 23.8563C11.5793 23.5223 11.3683 23.231 11.0846 23.0241L4.17792 17.9757C3.83009 17.7211 3.57165 17.363 3.43949 16.9526C3.30734 16.5423 3.30824 16.1007 3.44206 15.6909C3.57589 15.2811 3.8358 14.9241 4.18466 14.6708C4.53352 14.4176 4.95349 14.281 5.38459 14.2807H13.8846C14.2374 14.2807 14.5812 14.1687 14.8663 13.9609C15.1515 13.753 15.3633 13.46 15.4713 13.1241L18.0546 5.0724C18.1872 4.66038 18.4471 4.30106 18.7969 4.04615C19.1467 3.79125 19.5684 3.65391 20.0013 3.65391C20.4341 3.65391 20.8558 3.79125 21.2056 4.04615C21.5554 4.30106 21.8153 4.66038 21.9479 5.0724L24.5313 13.1241C24.6392 13.46 24.851 13.753 25.1362 13.9609C25.4213 14.1687 25.7651 14.2807 26.1179 14.2807H34.6179C35.049 14.281 35.469 14.4176 35.8179 14.6708C36.1667 14.9241 36.4266 15.2811 36.5604 15.6909C36.6943 16.1007 36.6952 16.5423 36.563 16.9526C36.4309 17.363 36.1724 17.7211 35.8246 17.9757H35.8213Z" fill="#007bff"/>
</svg>
