<?xml version="1.0"?>
<svg width="50" height="50" xmlns="http://www.w3.org/2000/svg" xmlns:svg="http://www.w3.org/2000/svg">
 <g class="layer">
  <title>Layer 1</title>
  <path d="m24.9977,25c1.648201,0 3.2593,-0.488701 4.6297,-1.4044c1.370401,-0.915701 2.438499,-2.217199 3.069302,-3.739901c0.630699,-1.522699 0.7957,-3.198299 0.474197,-4.814799c-0.321598,-1.6165 -1.1152,-3.1014 -2.280699,-4.2668c-1.1654,-1.16543 -2.650299,-1.959101 -4.2668,-2.280641c-1.616499,-0.321549 -3.292,-0.15652 -4.8148,0.474211c-1.522699,0.63073 -2.8242,1.69883 -3.739799,3.069229c-0.915701,1.3704 -1.404499,2.981601 -1.404499,4.629801c0,2.2101 0.877998,4.3297 2.4408,5.8925c1.562799,1.562799 3.6824,2.4408 5.892599,2.4408zm0,-12.5c0.8241,0 1.629601,0.2444 2.314899,0.7022c0.685202,0.4578 1.2192,1.1086 1.534601,1.87c0.3153,0.7613 0.3979,1.599101 0.237099,2.4073c-0.160799,0.8083 -0.5576,1.550699 -1.140299,2.1334c-0.5828,0.5828 -1.325201,0.979601 -2.1334,1.1404c-0.8083,0.1607 -1.646101,0.078201 -2.4074,-0.237101c-0.7614,-0.315399 -1.4121,-0.849499 -1.870001,-1.534698c-0.4578,-0.6852 -0.7022,-1.4907 -0.7022,-2.3148c0,-1.105101 0.439001,-2.164901 1.2204,-2.946301c0.781401,-0.7814 1.8412,-1.2204 2.946301,-1.2204zm18.041599,6.577101l-1.497898,-0.4979c0.2696,-2.3335 0.042801,-4.6976 -0.665401,-6.937401c-0.708199,-2.23967 -1.881798,-4.30438 -3.444,-6.05869c-1.562099,-1.75432 -3.477398,-3.15861 -5.620298,-4.12079c-2.1429,-0.96218 -4.465,-1.460513 -6.814001,-1.46232c-2.3797,0.000919 -4.731501,0.511863 -6.8971,1.49841c-2.165497,0.98654 -4.0945,2.42577 -5.656799,4.22071c-1.5624,1.79494 -2.72194,3.90389 -3.40048,6.18478c-0.678539,2.2809 -0.86034,4.6807 -0.53314,7.0378c-1.99369,0.3717 -3.83724,1.3123 -5.30834,2.7083c-1.01839,0.968201 -1.82798,2.134501 -2.379002,3.4272c-0.551023,1.292601 -0.831832,2.684299 -0.825163,4.0895l0,8.4895c0.004378,2.2528 0.737066,4.443798 2.088735,6.245998c1.35166,1.8022 3.24983,3.119102 5.41127,3.754002l5.97912,1.875c1.0043,0.312599 2.0503,0.470699 3.102099,0.4688c0.954201,-0.001202 1.903801,-0.131599 2.822901,-0.387501l12.0417,-3.5625c1.0728,-0.292801 2.204399,-0.292801 3.2771,0l4.9729,1.666702c1.225601,0.298298 2.502998,0.314499 3.735798,0.047298c1.232803,-0.267101 2.388802,-0.810699 3.381001,-1.5896c0.992203,-0.7789 1.794601,-1.7729 2.346703,-2.907101c0.552097,-1.134098 0.8396,-2.378799 0.840698,-3.640198l0,-10.727102c-0.004799,-2.155399 -0.675999,-4.256599 -1.9217,-6.015499c-1.2458,-1.759001 -3.005001,-3.089602 -5.036701,-3.8095l0,0.0021zm-26.879099,-11.239601c1.1588,-1.16356 2.5361,-2.08683 4.052599,-2.71681c1.516602,-0.62998 3.1427,-0.95428 4.784901,-0.95428c1.6422,0 3.2682,0.3243 4.7848,0.95428c1.516602,0.62998 2.893801,1.55325 4.052702,2.71681c2.337799,2.3524 3.651897,5.533 3.6562,8.849399c0.004299,3.316502 -1.301601,6.500502 -3.633301,8.8589l-7.402102,7.197899c-0.386299,0.378803 -0.9058,0.591003 -1.446899,0.591003c-0.541,0 -1.060499,-0.2122 -1.4468,-0.591003l-7.4021,-7.166597c-2.3428,-2.3575 -3.657701,-5.546202 -3.657701,-8.869801c0,-3.3236 1.3149,-6.5123 3.657701,-8.8698zm29.670801,31.789602c0.001297,0.630997 -0.141403,1.253998 -0.417202,1.821499c-0.275898,0.567501 -0.677498,1.064598 -1.1745,1.453499c-0.469501,0.377499 -1.016499,0.646999 -1.601898,0.7892c-0.585503,0.1422 -1.195103,0.153702 -1.785603,0.033699l-4.885399,-1.641697c-1.8479,-0.530903 -3.8064,-0.5424 -5.6604,-0.033302l-12.049999,3.5583c-1.157801,0.319401 -2.383,0.298401 -3.529201,-0.060398l-6.029119,-1.875c-1.304901,-0.3773 -2.45218,-1.167801 -3.26959,-2.252701c-0.81742,-1.084801 -1.26086,-2.405602 -1.26375,-3.764l0,-8.4895c-0.00468,-0.842201 0.16294,-1.6763 0.49255,-2.4513c0.32961,-0.7749 0.81425,-1.4743 1.42412,-2.055c0.9547,-0.909901 2.17087,-1.4972 3.47708,-1.679201c0.839809,2.081701 2.09041,3.972801 3.67711,5.560501l7.431201,7.193701c1.161499,1.137299 2.722399,1.7743 4.347898,1.7743c1.625601,0 3.186501,-0.637001 4.348001,-1.7743l7.422897,-7.214602c1.662003,-1.6686 2.949501,-3.6721 3.777103,-5.8771l1.118698,0.370901c1.213299,0.4347 2.262901,1.2332 3.0056,2.286499c0.742699,1.053301 1.1423,2.310101 1.144402,3.5989l0,10.727102z" fill="#f7941e" id="svg_1"/>
 </g>
</svg>