<svg width="40" height="40" viewBox="0 0 40 40" fill="none" xmlns="http://www.w3.org/2000/svg">
<path d="M34.7649 25.5515L28.4782 35.8099C27.7879 36.9432 26.8481 37.9041 25.7304 38.6195C24.6127 39.3349 23.3465 39.7859 22.0282 39.9382C21.6809 39.9794 21.3314 40 20.9816 39.9999C19.1907 39.9974 17.4443 39.4415 15.9816 38.4082C14.47 39.5406 12.6028 40.0942 10.7182 39.9685C8.8337 39.8429 7.05651 39.0464 5.70864 37.7233C4.36078 36.4002 3.53142 34.6381 3.37083 32.7562C3.21023 30.8743 3.72903 28.9972 4.83323 27.4649L2.64156 25.2765C1.70572 24.3406 0.993755 23.2051 0.558981 21.955C0.124208 20.705 -0.0221045 19.3727 0.131002 18.0581C0.284109 16.7435 0.732666 15.4805 1.44308 14.3638C2.1535 13.2471 3.10736 12.3056 4.23323 11.6099L13.8449 5.66652C16.4486 3.99782 19.5105 3.18877 22.5986 3.35354C25.6868 3.51831 28.6452 4.64857 31.0566 6.58485L33.8216 3.81985C33.9753 3.66067 34.1592 3.5337 34.3626 3.44635C34.5659 3.359 34.7846 3.31302 35.0059 3.3111C35.2272 3.30918 35.4467 3.35135 35.6515 3.43515C35.8563 3.51895 36.0424 3.6427 36.1989 3.79919C36.3554 3.95568 36.4791 4.14177 36.5629 4.34659C36.6467 4.55142 36.6889 4.77089 36.687 4.99219C36.6851 5.21349 36.6391 5.43219 36.5517 5.63553C36.4644 5.83887 36.3374 6.02277 36.1782 6.17652L33.4166 8.93985C35.2688 11.2603 36.3865 14.0806 36.6267 17.0398C36.8669 19.9991 36.2187 22.9628 34.7649 25.5515ZM13.4416 36.0782L7.24323 29.8782C6.75886 30.7445 6.57204 31.7457 6.71143 32.7284C6.85082 33.711 7.30872 34.6208 8.0149 35.3182C8.72726 35.9949 9.63335 36.4319 10.6064 36.5682C11.5794 36.7045 12.5707 36.5331 13.4416 36.0782ZM29.9766 10.0782C28.1258 8.20958 25.6895 7.03322 23.0752 6.74592C20.4609 6.45861 17.8273 7.07779 15.6149 8.49985L5.98656 14.4432C5.2883 14.8748 4.69673 15.4588 4.25616 16.1514C3.81558 16.8441 3.53743 17.6274 3.44252 18.4428C3.34761 19.2582 3.43841 20.0845 3.70811 20.8598C3.97781 21.6351 4.41943 22.3394 4.9999 22.9199L17.1499 35.0715C17.7313 35.6536 18.4371 36.0962 19.2142 36.3662C19.9913 36.6362 20.8196 36.7264 21.6366 36.6301C22.4536 36.5339 23.2382 36.2536 23.9313 35.8105C24.6244 35.3673 25.208 34.7727 25.6382 34.0715L31.8966 23.8632C33.1189 21.6677 33.5927 19.1338 33.2463 16.645C32.8999 14.1562 31.752 11.848 29.9766 10.0699V10.0782ZM32.1082 39.9999C31.7563 40.0005 31.4131 39.8897 31.128 39.6833C30.8429 39.4769 30.6304 39.1856 30.521 38.851C30.4117 38.5165 30.411 38.1559 30.5192 37.8209C30.6274 37.486 30.8388 37.1939 31.1232 36.9865C34.0416 34.7924 36.0167 31.5709 36.6482 27.9749C36.6925 27.7584 36.7794 27.5529 36.9038 27.3703C37.0283 27.1877 37.1878 27.0317 37.3731 26.9113C37.5584 26.7909 37.7658 26.7086 37.9832 26.6691C38.2006 26.6296 38.4237 26.6337 38.6395 26.6812C38.8552 26.7287 39.0594 26.8187 39.2402 26.9458C39.4209 27.073 39.5745 27.2348 39.6921 27.4219C39.8097 27.6089 39.8889 27.8175 39.9252 28.0355C39.9614 28.2535 39.954 28.4765 39.9032 28.6915C39.0866 33.0776 36.6556 36.9983 33.0899 39.6799C32.8048 39.8877 32.4611 39.9998 32.1082 39.9999ZM1.66656 9.56485C1.35873 9.56348 1.0573 9.47688 0.795681 9.31466C0.534063 9.15243 0.322483 8.92093 0.184403 8.6458C0.0463221 8.37067 -0.0128648 8.06268 0.0134047 7.75597C0.0396742 7.44926 0.150374 7.15582 0.333229 6.90819C3.05153 3.27583 7.05293 0.817055 11.5216 0.033185C11.9547 -0.0552205 12.4053 0.0320777 12.7741 0.275875C13.143 0.519672 13.3998 0.899998 13.4882 1.33318C13.5766 1.76637 13.4893 2.21694 13.2455 2.58576C13.0017 2.95458 12.6214 3.21145 12.1882 3.29985C8.51819 3.90589 5.22528 5.90923 2.9999 8.88985C2.84553 9.09838 2.6446 9.26799 2.41313 9.38517C2.18165 9.50236 1.92601 9.56388 1.66656 9.56485Z" fill="#034EA2"/>
</svg>
