<svg width="100" height="100" viewBox="0 0 18 18" fill="none" xmlns="http://www.w3.org/2000/svg">
<path d="M5.73611 16.5C5.58084 16.5 5.4277 16.4639 5.28881 16.3944L4 15.75V16.5C4 17.0523 4.44772 17.5 5 17.5C5.55228 17.5 6 17.0523 6 16.5L5.73611 16.5Z" fill="#34c759"/>
<path d="M14 15.75L12.7111 16.3944C12.5723 16.4639 12.4192 16.5 12.2639 16.5L12 16.5C12 17.0523 12.4477 17.5 13 17.5C13.5523 17.5 14 17.0523 14 16.5V15.75Z" fill="#34c759"/>
<path fill-rule="evenodd" clip-rule="evenodd" d="M11.4028 2.5C11.4674 2.5 11.5319 2.5063 11.5954 2.5186C12.3346 2.66177 13.0857 2.78555 13.6388 2.87173C14.1321 2.94859 14.5 3.37171 14.5 3.87093V6.49998V14.941C14.5 15.2836 14.3064 15.5968 14 15.75L12.7111 16.3944C12.5723 16.4639 12.4192 16.5 12.2639 16.5L12 16.5L6 16.5L5.73611 16.5C5.58084 16.5 5.4277 16.4639 5.28881 16.3944L4 15.75C3.69357 15.5968 3.5 15.2836 3.5 14.941V6.49998V3.8432C3.5 3.35609 3.85038 2.94006 4.33073 2.85923C4.86134 2.76995 5.60187 2.6464 6.41996 2.51304C6.47308 2.50438 6.52704 2.5 6.58086 2.5H11.4028ZM4.5 5.99998C4.5 5.4477 4.94772 4.99998 5.5 4.99998H12.5C13.0523 4.99998 13.5 5.44769 13.5 5.99998V10C13.5 10.5523 13.0523 11 12.5 11H5.5C4.94772 11 4.5 10.5523 4.5 10V5.99998ZM5.28001 13.04C5.70667 12.72 6.29333 12.72 6.71999 13.04C7.36 13.52 7.36 14.48 6.72001 14.96C6.29334 15.28 5.70666 15.28 5.27999 14.96C4.64 14.48 4.64 13.52 5.28001 13.04ZM12.72 13.04C12.2933 12.72 11.7067 12.72 11.28 13.04C10.64 13.52 10.64 14.48 11.28 14.96C11.7067 15.28 12.2933 15.28 12.72 14.96C13.36 14.48 13.36 13.52 12.72 13.04ZM12.5 3.75C12.5 4.16421 12.1642 4.5 11.75 4.5H6.25C5.83579 4.5 5.5 4.16421 5.5 3.75C5.5 3.33579 5.83579 3 6.25 3H11.75C12.1642 3 12.5 3.33579 12.5 3.75Z" fill="#34c759"/>
<path d="M4 15.75V15.75C3.69357 15.5968 3.5 15.2836 3.5 14.941V6.49998V3.8432C3.5 3.35609 3.85038 2.94006 4.33073 2.85923C4.86134 2.76995 5.60187 2.6464 6.41996 2.51304C6.47308 2.50438 6.52704 2.5 6.58086 2.5H11.4028C11.4674 2.5 11.5319 2.5063 11.5954 2.5186C12.3346 2.66177 13.0857 2.78555 13.6388 2.87173C14.1321 2.94859 14.5 3.37171 14.5 3.87093V6.49998V14.941C14.5 15.2836 14.3064 15.5968 14 15.75V15.75M4 15.75L5.28881 16.3944C5.4277 16.4639 5.58084 16.5 5.73611 16.5L6 16.5M4 15.75V16.5C4 17.0523 4.44772 17.5 5 17.5V17.5C5.55228 17.5 6 17.0523 6 16.5V16.5M6 16.5L12 16.5M14 15.75L12.7111 16.3944C12.5723 16.4639 12.4192 16.5 12.2639 16.5L12 16.5M14 15.75V16.5C14 17.0523 13.5523 17.5 13 17.5V17.5C12.4477 17.5 12 17.0523 12 16.5V16.5M6.25 3H11.75C12.1642 3 12.5 3.33579 12.5 3.75V3.75C12.5 4.16421 12.1642 4.5 11.75 4.5H6.25C5.83579 4.5 5.5 4.16421 5.5 3.75V3.75C5.5 3.33579 5.83579 3 6.25 3ZM12.72 14.96V14.96C12.2933 15.28 11.7067 15.28 11.28 14.96V14.96C10.64 14.48 10.64 13.52 11.28 13.04V13.04C11.7067 12.72 12.2933 12.72 12.72 13.04V13.04C13.36 13.52 13.36 14.48 12.72 14.96ZM5.27999 14.96V14.96C5.70666 15.28 6.29334 15.28 6.72001 14.96V14.96C7.36 14.48 7.36 13.52 6.71999 13.04V13.04C6.29333 12.72 5.70667 12.72 5.28001 13.04V13.04C4.64 13.52 4.64 14.48 5.27999 14.96ZM5.5 11H12.5C13.0523 11 13.5 10.5523 13.5 10V5.99998C13.5 5.44769 13.0523 4.99998 12.5 4.99998H5.5C4.94772 4.99998 4.5 5.4477 4.5 5.99998V10C4.5 10.5523 4.94772 11 5.5 11Z" stroke="#34c759" stroke-width="0.5" stroke-linecap="round"/>
<path d="M14.5004 6.5L15.2074 7.207C15.395 7.3946 15.5003 7.64906 15.5003 7.91436L15.5001 8.58605C15.5 8.85111 15.3947 9.1053 15.2073 9.29277L14.5004 10M3.50038 6.5L2.79303 7.20708C2.60541 7.39463 2.5 7.64904 2.5 7.91433V8.58567C2.5 8.85096 2.60541 9.10537 2.79303 9.29292L3.50038 10" stroke="#34c759" stroke-linecap="round"/>
</svg>
