<svg width="18" height="18" viewBox="0 0 18 18" fill="none" xmlns="http://www.w3.org/2000/svg">
<path fill-rule="evenodd" clip-rule="evenodd" d="M14.4568 6.43541C14.4843 6.15784 14.3957 5.88153 14.1971 5.68567C13.6913 5.18679 12.6272 4.24663 11.5879 4.01765C11.5295 4.00479 11.4699 4 11.4101 4H6.57471C6.52497 4 6.4752 4.00339 6.42623 4.01212C5.24094 4.22331 4.21761 5.19743 3.75818 5.69927C3.58585 5.88751 3.51404 6.14147 3.53924 6.39543L4.4246 15.3171C4.46912 15.7657 4.80833 16.1291 5.25285 16.2043L6.91716 16.486C6.97229 16.4953 7.0281 16.5 7.08402 16.5H10.916C10.9719 16.5 11.0277 16.4953 11.0828 16.486L12.7471 16.2043C13.1917 16.1291 13.5309 15.7657 13.5754 15.3171L14.4568 6.43541ZM12 6H6L4.62367 6.68816C4.24894 6.87553 4.03074 7.27662 4.077 7.69302L4.45963 11.1366C4.48367 11.353 4.645 11.529 4.85851 11.5717L7 12H11L13.1415 11.5717C13.355 11.529 13.5163 11.353 13.5404 11.1366L13.923 7.69302C13.9693 7.27662 13.7511 6.87553 13.3763 6.68816L12 6ZM11.3661 9.23273C11.1347 10.4935 11 11.4178 11 12C10.9999 11.3154 11.1482 10.3798 11.3661 9.23273ZM11.3661 9.23273C11.5322 8.32779 11.7482 7.24951 12 6C11.8785 6.63935 11.758 7.24476 11.6448 7.81295C11.5446 8.31616 11.4501 8.79018 11.3661 9.23273ZM5.65811 12.7194C5.33435 12.6114 5 12.8524 5 13.1937V13.6396C5 13.8548 5.13772 14.0459 5.34189 14.114L7.34189 14.7806C7.66565 14.8886 8 14.6476 8 14.3063V13.8604C8 13.6452 7.86229 13.4541 7.65811 13.386L5.65811 12.7194ZM12.3419 12.7194C12.6657 12.6114 13 12.8524 13 13.1937V13.6396C13 13.8548 12.8623 14.0459 12.6581 14.114L10.6581 14.7806C10.3343 14.8886 10 14.6476 10 14.3063V13.8604C10 13.6452 10.1377 13.4541 10.3419 13.386L12.3419 12.7194Z" fill="#333333"/>
<path d="M6 6H12M6 6C6.12531 6.68381 6.25131 7.34203 6.3696 7.96C6.71827 9.7815 7 11.2533 7 12M6 6L4.62367 6.68816C4.24894 6.87553 4.03074 7.27662 4.077 7.69302L4.45963 11.1366C4.48367 11.353 4.645 11.529 4.85851 11.5717L7 12M12 6L13.3763 6.68816C13.7511 6.87553 13.9693 7.27662 13.923 7.69302L13.5404 11.1366C13.5163 11.353 13.355 11.529 13.1415 11.5717L11 12M12 6C11.7482 7.24951 11.5322 8.32779 11.3661 9.23273M12 6C11.8785 6.63935 11.758 7.24476 11.6448 7.81295C11.5446 8.31616 11.4501 8.79018 11.3661 9.23273M11 12H7M11 12C11 11.4178 11.1347 10.4935 11.3661 9.23273M11 12C10.9999 11.3154 11.1482 10.3798 11.3661 9.23273M10.916 16.5H7.08402C7.0281 16.5 6.97229 16.4953 6.91716 16.486L5.25285 16.2043C4.80833 16.1291 4.46912 15.7657 4.4246 15.3171L3.53924 6.39543C3.51404 6.14147 3.58585 5.88751 3.75818 5.69927C4.21761 5.19743 5.24094 4.22331 6.42623 4.01212C6.4752 4.00339 6.52497 4 6.57471 4H11.4101C11.4699 4 11.5295 4.00479 11.5879 4.01765C12.6272 4.24663 13.6913 5.18679 14.1971 5.68567C14.3957 5.88153 14.4843 6.15784 14.4568 6.43541L13.5754 15.3171C13.5309 15.7657 13.1917 16.1291 12.7471 16.2043L11.0828 16.486C11.0277 16.4953 10.9719 16.5 10.916 16.5ZM12.6581 14.114L10.6581 14.7806C10.3343 14.8886 10 14.6476 10 14.3063V13.8604C10 13.6452 10.1377 13.4541 10.3419 13.386L12.3419 12.7194C12.6657 12.6114 13 12.8524 13 13.1937V13.6396C13 13.8548 12.8623 14.0459 12.6581 14.114ZM5 13.1937V13.6396C5 13.8548 5.13772 14.0459 5.34189 14.114L7.34189 14.7806C7.66565 14.8886 8 14.6476 8 14.3063V13.8604C8 13.6452 7.86228 13.4541 7.65811 13.386L5.65811 12.7194C5.33435 12.6114 5 12.8524 5 13.1937Z" stroke="#333333" stroke-width="0.5" stroke-linecap="round"/>
<path d="M6.5 15L5 16.875L4.5 17.5M11.4997 15L12.9997 16.875L13.4997 17.5" stroke="#333333" stroke-width="0.5" stroke-linecap="round"/>
<path d="M11.5998 2.9586L8.98513 4.30901C8.83598 4.38605 8.66548 4.38257 8.51802 4.29794L6.16196 2.94586L5.07191 2.32032L6.19514 1.77928L8.54785 0.646014L8.74779 0.549708L8.95045 0.637565L11.5684 1.77249L12.834 2.32113L12.8339 2.32116L11.5998 2.9586Z" stroke="#333333" stroke-linecap="round"/>
</svg>
