<svg width="119" height="168" viewBox="0 0 119 168" fill="none" xmlns="http://www.w3.org/2000/svg">
<path d="M34.9966 151.6H59.1919H83.3892L84.2114 153.403C84.6633 154.394 85.0337 155.351 85.0337 155.528C85.0337 155.704 73.404 155.848 59.1919 155.848C44.9798 155.848 33.3521 155.704 33.3521 155.528C33.3521 155.351 33.7225 154.394 34.1743 153.403L34.9966 151.6ZM59.1919 143.104C78.4247 143.104 78.5909 143.119 79.6841 144.678C80.2902 145.543 80.7857 146.498 80.7857 146.801C80.7857 147.104 71.0678 147.352 59.1919 147.352C47.316 147.352 37.6001 147.104 37.6001 146.801C37.6001 146.498 38.0955 145.543 38.7017 144.678C39.7949 143.117 39.9591 143.104 59.1919 143.104ZM92.1548 112.754C93.4441 112.7 94.8115 113.177 96.0376 114.403C96.9933 115.359 97.7759 116.966 97.7759 117.975C97.7759 118.984 96.9933 120.59 96.0376 121.546C93.8079 123.775 90.7364 123.817 88.6958 121.645C85.1332 117.853 88.2868 112.917 92.1548 112.754ZM25.7915 112.665C30.5328 112.665 32.9939 118.547 29.5903 121.745C28.6892 122.591 27.0815 123.284 26.0181 123.284C23.5588 123.284 20.6099 120.389 20.6099 117.975C20.6099 115.668 23.5404 112.665 25.7915 112.665ZM25.9517 108.518C25.5561 108.525 25.1508 108.548 24.7349 108.588C20.6195 108.984 18.1207 110.998 16.9653 114.854C15.7936 118.765 16.7581 122.468 19.6587 125.203C21.7965 127.22 22.6176 127.532 25.7935 127.528C32.0917 127.52 35.4064 124.276 35.4517 118.082C35.4962 111.995 31.8864 108.415 25.9517 108.518ZM92.0786 108.503C90.4917 108.54 88.9069 108.863 87.5786 109.493C84.3751 111.013 82.9087 113.685 82.9087 118.005C82.9087 121.749 84.3607 124.659 87.0669 126.339C88.1456 127.008 90.466 127.5 92.5923 127.511C95.778 127.526 96.5826 127.224 98.7271 125.202C102.874 121.291 102.943 114.395 98.8737 110.571C97.378 109.166 94.7237 108.44 92.0786 108.503ZM30.9868 42.6804C33.3158 42.6767 36.25 42.6993 39.9634 42.7408L57.0689 42.9302L57.2544 69.6548L57.44 96.3794H39.7584C23.0009 96.3794 22.0369 96.308 21.3424 95.0103C20.8778 94.1422 20.6099 84.7009 20.6099 69.2212C20.6099 47.8503 20.7505 44.6608 21.7349 43.6763C22.4676 42.9436 23.9999 42.6914 30.9868 42.6804ZM61.6705 42.5749H78.6099C93.0662 42.5749 95.7132 42.739 96.6626 43.6882C97.631 44.6566 97.7759 47.9651 97.7759 69.2214C97.7759 84.7011 97.5079 94.1425 97.0435 95.0105C96.3496 96.3071 95.3898 96.3796 78.9907 96.3796H61.6705V69.4773V42.5749ZM20.5454 38.3288L18.854 40.0183C17.9241 40.9482 16.9656 42.7797 16.7232 44.0886C16.4807 45.3976 16.3792 57.8507 16.4985 71.7605C16.7105 96.4745 16.75 97.0851 18.2232 98.5574C19.0523 99.386 20.8053 100.318 22.1177 100.628C25.6922 101.472 93.3888 101.465 96.4302 100.62C101.801 99.1281 101.644 99.9677 101.887 71.706C102.007 57.8263 101.906 45.3978 101.663 44.0888C101.42 42.7801 100.462 40.9487 99.5318 40.0188L97.8404 38.3287H59.192L20.5454 38.3288ZM51.7134 25.6862C45.7686 25.6938 44.4989 25.9383 44.2329 26.6315C44.0058 27.2236 44.0058 28.1939 44.2329 28.7859C44.5875 29.7099 46.7282 29.8349 59.354 29.6706L74.0591 29.4794V27.7099V25.9383L59.354 25.7471C56.1976 25.7059 53.695 25.6832 51.7134 25.6862ZM60.6021 17.5789C78.5193 17.7596 96.2403 20.1653 101.002 23.7976C106.207 27.7673 105.918 24.4472 105.918 80.1492V130.11L103.969 133.053C102.898 134.672 100.761 136.64 99.2192 137.427C96.5096 138.809 95.1736 138.855 59.0435 138.825C23.1894 138.795 21.5628 138.737 19.0142 137.391C17.5531 136.62 15.4824 134.668 14.4126 133.051L12.4673 130.112L12.272 81.7117C12.1413 49.4341 12.3236 32.3882 12.8208 30.5418C13.6262 27.5509 16.3371 23.9034 18.688 22.6453C20.9624 21.428 27.1934 20.1382 37.2466 18.8054C44.2727 17.874 52.4579 17.4968 60.6021 17.5789ZM59.1919 4.34646C66.0289 4.34646 66.6884 4.45947 66.3579 5.58474C66.1576 6.26612 65.7816 8.02263 65.522 9.48708C65.2623 10.9515 64.7449 12.3384 64.3716 12.5691C63.1949 13.2964 54.4965 13.228 53.9048 12.4871C53.5938 12.0977 53.1188 10.6644 52.8501 9.30155C52.5814 7.93877 52.2041 6.26616 52.0122 5.58474C51.6957 4.46064 52.3606 4.34646 59.1919 4.34646ZM43.4829 0.026123L39.8345 2.91094C37.1996 4.99369 36.1841 6.2835 36.1841 7.54957C36.1841 10.1298 38.5949 9.81967 42.3306 6.75855C44.0385 5.35907 45.857 4.37482 46.3736 4.57302C46.8901 4.77107 47.6757 6.37635 48.1196 8.13943C49.4249 13.3231 49.3259 13.5496 45.7622 13.5496C41.7424 13.5496 28.8983 15.373 22.1704 16.8992C13.7728 18.8041 9.11927 23.8882 8.13918 32.2273C7.7226 35.7718 7.41423 36.3237 4.88722 38.075C0.293033 41.2587 0.0786133 41.8748 0.0786133 51.8504C0.0786133 59.1611 0.284775 60.9797 1.19974 61.739C2.01245 62.4135 2.64553 62.4667 3.50049 61.9284C4.47775 61.3131 4.71396 59.6912 4.87941 52.4733C5.04601 45.2056 5.28088 43.612 6.29543 42.8698C7.44063 42.032 7.53242 44.591 7.86573 86.7018C8.21473 130.793 8.24211 131.463 9.74465 134.255C11.3504 137.238 13.2094 139.135 16.7153 141.36C18.3699 142.41 20.5208 142.769 26.4497 142.985C30.6355 143.137 34.0611 143.407 34.0611 143.585C34.0611 143.762 31.5081 148.79 28.3892 154.757C24.9443 161.347 22.8913 166.053 23.1568 166.745C23.3971 167.371 24.3038 167.883 25.1724 167.883C26.3836 167.883 27.1965 166.975 28.6587 163.989L30.565 160.096H59.2232H87.8794L89.7896 163.989C91.2358 166.938 92.0753 167.883 93.2466 167.883C96.271 167.883 95.7433 165.751 89.9966 154.757C86.8776 148.79 84.3248 143.762 84.3248 143.585C84.3248 143.407 87.7503 143.137 91.936 142.985C97.865 142.769 100.016 142.41 101.67 141.36C105.176 139.135 107.035 137.238 108.641 134.255C110.149 131.453 110.168 130.941 110.368 86.6549C110.568 42.3576 110.583 41.897 111.959 42.7565C113.213 43.5393 113.35 44.4404 113.35 51.8913C113.35 60.9788 113.629 62.3991 115.409 62.3991C117.903 62.3991 118.307 60.9234 118.307 51.7956C118.307 41.8803 118.089 41.2561 113.499 38.0748C110.972 36.3236 110.663 35.7717 110.247 32.2272C109.267 23.8882 104.613 18.804 96.2154 16.8991C89.4875 15.3729 76.6414 13.5495 72.6216 13.5495C69.0579 13.5495 68.9609 13.3231 70.2661 8.13931C70.7101 6.37624 71.4957 4.7711 72.0122 4.57291C72.5288 4.37486 74.3473 5.35898 76.0552 6.75846C79.7712 9.80344 82.2017 10.1266 82.2017 7.57875C82.2017 6.38767 81.1839 5.02351 78.9048 3.15495L75.6099 0.451822L59.5454 0.239016L43.4829 0.026123Z" fill="#034EA2"/>
</svg>
