<svg width="100" height="100" viewBox="0 0 18 18" fill="none" xmlns="http://www.w3.org/2000/svg">
<path d="M5.73611 16.5C5.58084 16.5 5.4277 16.4639 5.28881 16.3944L4 15.75V16.5C4 17.0523 4.44772 17.5 5 17.5C5.55228 17.5 6 17.0523 6 16.5L5.73611 16.5Z" fill="#ffffff"/>
<path d="M14 15.75L12.7111 16.3944C12.5723 16.4639 12.4192 16.5 12.2639 16.5L12 16.5C12 17.0523 12.4477 17.5 13 17.5C13.5523 17.5 14 17.0523 14 16.5V15.75Z" fill="#ffffff"/>
<path fill-rule="evenodd" clip-rule="evenodd" d="M14.5 4.87093C14.5 4.3717 14.1321 3.94859 13.6388 3.87173C13.0857 3.78555 12.3346 3.66177 11.5954 3.5186C11.5319 3.5063 11.4674 3.5 11.4028 3.5H6.58086C6.52704 3.5 6.47308 3.50438 6.41996 3.51304C5.60187 3.6464 4.86134 3.76995 4.33073 3.85923C3.85038 3.94006 3.5 4.35609 3.5 4.8432V6.49998V15.5986C3.5 15.8687 3.85022 15.9747 4 15.75L5.28881 16.3944C5.4277 16.4639 5.58084 16.5 5.73611 16.5L6 16.5L12 16.5L12.2639 16.5C12.4192 16.5 12.5723 16.4639 12.7111 16.3944L14 15.75C14.1498 15.9747 14.5 15.8687 14.5 15.5986V6.49998V4.87093ZM13.5 5.99998C13.5 5.44769 13.0523 4.99998 12.5 4.99998H5.5C4.94772 4.99998 4.5 5.44769 4.5 5.99998V10.5C4.5 11.0523 4.94772 11.5 5.5 11.5H12.5C13.0523 11.5 13.5 11.0523 13.5 10.5V5.99998ZM7 15C7.55228 14.4477 7.55228 13.5523 7 13C6.44772 12.4477 5.55228 12.4477 5 13C4.44772 13.5523 4.44772 14.4477 5 15C5.55228 15.5523 6.44772 15.5523 7 15ZM11 15C10.4477 14.4477 10.4477 13.5523 11 13C11.5523 12.4477 12.4477 12.4477 13 13C13.5523 13.5523 13.5523 14.4477 13 15C12.4477 15.5523 11.5523 15.5523 11 15Z" fill="#ffffff"/>
<path d="M4 15.75V15.75C3.85022 15.9747 3.5 15.8687 3.5 15.5986V6.49998V4.8432C3.5 4.35609 3.85038 3.94006 4.33073 3.85923C4.86134 3.76995 5.60187 3.6464 6.41996 3.51304C6.47308 3.50438 6.52704 3.5 6.58086 3.5H11.4028C11.4674 3.5 11.5319 3.5063 11.5954 3.5186C12.3346 3.66177 13.0857 3.78555 13.6388 3.87173C14.1321 3.94859 14.5 4.3717 14.5 4.87093V6.49998V15.5986C14.5 15.8687 14.1498 15.9747 14 15.75V15.75M4 15.75L5.28881 16.3944C5.4277 16.4639 5.58084 16.5 5.73611 16.5L6 16.5M4 15.75V16.5C4 17.0523 4.44772 17.5 5 17.5V17.5C5.55228 17.5 6 17.0523 6 16.5V16.5M6 16.5L12 16.5M14 15.75L12.7111 16.3944C12.5723 16.4639 12.4192 16.5 12.2639 16.5L12 16.5M14 15.75V16.5C14 17.0523 13.5523 17.5 13 17.5V17.5C12.4477 17.5 12 17.0523 12 16.5V16.5M13 15V15C12.4477 15.5523 11.5523 15.5523 11 15V15C10.4477 14.4477 10.4477 13.5523 11 13V13C11.5523 12.4477 12.4477 12.4477 13 13V13C13.5523 13.5523 13.5523 14.4477 13 15ZM5 15V15C5.55228 15.5523 6.44772 15.5523 7 15V15C7.55228 14.4477 7.55228 13.5523 7 13V13C6.44772 12.4477 5.55228 12.4477 5 13V13C4.44772 13.5523 4.44772 14.4477 5 15ZM5.5 11.5H12.5C13.0523 11.5 13.5 11.0523 13.5 10.5V5.99998C13.5 5.44769 13.0523 4.99998 12.5 4.99998H5.5C4.94772 4.99998 4.5 5.44769 4.5 5.99998V10.5C4.5 11.0523 4.94772 11.5 5.5 11.5Z" stroke="#ffffff" stroke-width="0.5" stroke-linecap="round"/>
<path d="M7 4.38278L9 0.5M10 4.36987L12 0.5" stroke="#ffffff" stroke-linecap="round"/>
<path d="M14.5004 6.5L15.2075 7.20711C15.395 7.39464 15.5004 7.649 15.5004 7.91421V10M3.50038 6.5L2.79303 7.20708C2.60541 7.39463 2.5 7.64904 2.5 7.91433V10" stroke="#ffffff" stroke-linecap="round"/>
</svg>
