<?xml version="1.0"?>
<svg width="40" height="40" xmlns="http://www.w3.org/2000/svg" xmlns:svg="http://www.w3.org/2000/svg">
 <g class="layer">
  <title>Layer 1</title>
  <path d="m39.726299,14.6574c-0.341,-1.0852 -1.022099,-2.0318 -1.9426,-2.6999c-0.920601,-0.6682 -2.0317,-1.022301 -3.169098,-1.0101l-7.281702,0l-2.211599,-6.89333c-0.347799,-1.08507 -1.0313,-2.03164 -1.951799,-2.70322c-0.9205,-0.671585 -2.0305,-1.033467 -3.169901,-1.033467c-1.1395,0 -2.2495,0.361882 -3.17,1.033467c-0.9205,0.67158 -1.603899,1.61815 -1.951699,2.70322l-2.2116,6.89333l-7.28171,0c-1.13376,0.0016 -2.23802,0.3615 -3.15503,1.0282c-0.91702,0.666699 -1.599903,1.6061 -1.951102,2.6841c-0.351199,1.078 -0.352753,2.239399 -0.004441,3.318399c0.348312,1.078899 1.028673,2.020201 1.943903,2.689301l5.92667,4.3333l-2.25333,6.978399c-0.36415,1.082302 -0.36877,2.2533 -0.01316,3.338501c0.35561,1.085098 1.0524,2.026299 1.98649,2.683102c0.918089,0.677998 2.03065,1.041199 3.17191,1.0355c1.1413,-0.005703 2.2502,-0.380001 3.1614,-1.067101l5.8017,-4.27l5.803301,4.264999c0.916399,0.674099 2.022999,1.040199 3.160601,1.0457c1.137699,0.0056 2.2477,-0.3498 3.1707,-1.0149c0.922897,-0.6651 1.611198,-1.605801 1.9659,-2.686699c0.354599,-1.081001 0.357399,-2.246502 0.007797,-3.329102l-2.253298,-6.978399l5.933298,-4.3333c0.925701,-0.6607 1.614101,-1.602001 1.9632,-2.684401c0.349102,-1.082399 0.340401,-2.2485 -0.024799,-3.3256zm-3.904999,3.3183l-6.9067,5.048399c-0.283701,0.206902 -0.494801,0.498201 -0.6031,0.832201c-0.1084,0.334 -0.1084,0.693699 -0.0002,1.0278l2.625,8.116602c0.132799,0.411697 0.131599,0.854897 -0.0033,1.2659c-0.134901,0.410999 -0.3967,0.768597 -0.7477,1.021397c-0.351,0.252903 -0.7731,0.387901 -1.2057,0.3857c-0.4326,-0.002197 -0.8533,-0.141598 -1.2017,-0.397999l-6.791601,-5c-0.2861,-0.2101 -0.6318,-0.3234 -0.9867,-0.3234c-0.355,0 -0.7006,0.1133 -0.9867,0.3234l-6.791599,5c-0.3482,0.259899 -0.7701,0.4021 -1.2046,0.406002c-0.4345,0.003998 -0.8589,-0.130501 -1.21173,-0.384003c-0.35285,-0.253498 -0.6158,-0.612801 -0.75072,-1.025799c-0.13492,-0.413002 -0.1348,-0.8582 0.00034,-1.271198l2.633309,-8.116602c0.1082,-0.334101 0.1081,-0.6938 -0.000199,-1.0278c-0.1084,-0.334 -0.3194,-0.625299 -0.6031,-0.832201l-6.906681,-5.048399c-0.34783,-0.254601 -0.60627,-0.6127 -0.73843,-1.0231c-0.13215,-0.410301 -0.13125,-0.8519 0.00257,-1.261701c0.13383,-0.4098 0.39374,-0.7668 0.7426,-1.0201c0.34886,-0.253201 0.76883,-0.3898 1.19993,-0.3901l8.50001,0c0.3528,0 0.6966,-0.112 0.9817,-0.319799c0.2852,-0.2079 0.497001,-0.5009 0.605,-0.836801l2.5833,-8.0517c0.132601,-0.41202 0.3925,-0.77134 0.7423,-1.02625c0.3498,-0.2549 0.7715,-0.39224 1.204401,-0.39224c0.432798,0 0.8545,0.13734 1.2043,0.39224c0.3498,0.25491 0.609699,0.61423 0.7423,1.02625l2.583399,8.0517c0.107901,0.3359 0.3197,0.628901 0.6049,0.836801c0.285101,0.2078 0.628901,0.319799 0.981701,0.319799l8.5,0c0.431099,0.0003 0.851101,0.1369 1.200001,0.3901c0.348797,0.2533 0.6087,0.6103 0.7425,1.0201c0.1339,0.409801 0.1348,0.851399 0.002598,1.261701c-0.132099,0.4104 -0.390598,0.768499 -0.7384,1.0231l-0.0033,0z" fill="#f7941e" id="svg_1"/>
 </g>
</svg>