<svg width="40" height="40" viewBox="0 0 40 40" fill="none" xmlns="http://www.w3.org/2000/svg">
<g clip-path="url(#clip0_278_330)">
<path d="M20.0002 13.3345C18.6816 13.3345 17.3927 13.7255 16.2964 14.458C15.2 15.1906 14.3456 16.2317 13.841 17.4499C13.3364 18.6681 13.2044 20.0085 13.4616 21.3017C13.7188 22.5949 14.3538 23.7828 15.2861 24.7152C16.2185 25.6475 17.4064 26.2825 18.6996 26.5397C19.9928 26.7969 21.3332 26.6649 22.5514 26.1603C23.7696 25.6558 24.8108 24.8013 25.5433 23.7049C26.2758 22.6086 26.6668 21.3197 26.6668 20.0011C26.6668 18.233 25.9645 16.5373 24.7142 15.2871C23.464 14.0369 21.7683 13.3345 20.0002 13.3345ZM20.0002 23.3345C19.3409 23.3345 18.6964 23.139 18.1483 22.7727C17.6001 22.4064 17.1729 21.8858 16.9206 21.2768C16.6683 20.6677 16.6023 19.9974 16.7309 19.3508C16.8595 18.7042 17.177 18.1103 17.6431 17.6441C18.1093 17.1779 18.7033 16.8605 19.3499 16.7319C19.9965 16.6032 20.6667 16.6692 21.2758 16.9215C21.8849 17.1738 22.4055 17.6011 22.7717 18.1492C23.138 18.6974 23.3335 19.3419 23.3335 20.0011C23.3335 20.8852 22.9823 21.733 22.3572 22.3582C21.7321 22.9833 20.8842 23.3345 20.0002 23.3345Z" fill="#034EA2"/>
<path d="M35.4901 23.1667L34.7501 22.74C35.0832 20.9274 35.0832 19.0693 34.7501 17.2567L35.4901 16.83C36.0591 16.5017 36.558 16.0645 36.9581 15.5434C37.3582 15.0224 37.6517 14.4276 37.822 13.793C37.9922 13.1585 38.0358 12.4966 37.9503 11.8453C37.8647 11.1939 37.6517 10.5657 37.3234 9.99667C36.9951 9.42761 36.5579 8.92878 36.0368 8.52867C35.5158 8.12856 34.921 7.83501 34.2864 7.66477C33.6519 7.49453 32.9901 7.45094 32.3387 7.53648C31.6873 7.62202 31.0591 7.83503 30.4901 8.16333L29.7484 8.59167C28.3476 7.39486 26.7379 6.46708 25.0001 5.855V5C25.0001 3.67392 24.4733 2.40215 23.5356 1.46447C22.5979 0.526784 21.3262 0 20.0001 0C18.674 0 17.4022 0.526784 16.4645 1.46447C15.5269 2.40215 15.0001 3.67392 15.0001 5V5.855C13.2624 6.46928 11.6532 7.39933 10.2534 8.59833L9.50841 8.16667C8.35913 7.50363 6.99354 7.32429 5.71204 7.6681C4.43054 8.01192 3.33811 8.85073 2.67507 10C2.01203 11.1493 1.83269 12.5149 2.17651 13.7964C2.52033 15.0779 3.35913 16.1703 4.5084 16.8333L5.2484 17.26C4.91525 19.0726 4.91525 20.9307 5.2484 22.7433L4.5084 23.17C3.35913 23.833 2.52033 24.9255 2.17651 26.207C1.83269 27.4885 2.01203 28.8541 2.67507 30.0033C3.33811 31.1526 4.43054 31.9914 5.71204 32.3352C6.99354 32.679 8.35913 32.4997 9.50841 31.8367L10.2501 31.4083C11.6513 32.6053 13.2617 33.5331 15.0001 34.145V35C15.0001 36.3261 15.5269 37.5979 16.4645 38.5355C17.4022 39.4732 18.674 40 20.0001 40C21.3262 40 22.5979 39.4732 23.5356 38.5355C24.4733 37.5979 25.0001 36.3261 25.0001 35V34.145C26.7378 33.5307 28.347 32.6007 29.7467 31.4017L30.4917 31.8317C31.641 32.4947 33.0066 32.674 34.2881 32.3302C35.5696 31.9864 36.662 31.1476 37.3251 29.9983C37.9881 28.8491 38.1675 27.4835 37.8236 26.202C37.4798 24.9205 36.641 23.828 35.4917 23.165L35.4901 23.1667ZM31.2434 16.8733C31.8078 18.9184 31.8078 21.0782 31.2434 23.1233C31.1449 23.4793 31.1673 23.8579 31.3073 24.1997C31.4473 24.5415 31.6968 24.8271 32.0167 25.0117L33.8234 26.055C34.2064 26.276 34.486 26.6401 34.6005 27.0672C34.7151 27.4944 34.6553 27.9495 34.4342 28.3325C34.2132 28.7155 33.8491 28.995 33.422 29.1096C32.9949 29.2242 32.5398 29.1643 32.1567 28.9433L30.3467 27.8967C30.0266 27.7112 29.6538 27.6376 29.2871 27.6874C28.9205 27.7372 28.5809 27.9076 28.3217 28.1717C26.8383 29.6861 24.9694 30.7666 22.9167 31.2967C22.5585 31.3888 22.241 31.5975 22.0144 31.8899C21.7878 32.1823 21.6649 32.5417 21.6651 32.9117V35C21.6651 35.442 21.4895 35.866 21.1769 36.1785C20.8644 36.4911 20.4404 36.6667 19.9984 36.6667C19.5564 36.6667 19.1325 36.4911 18.8199 36.1785C18.5073 35.866 18.3317 35.442 18.3317 35V32.9133C18.3319 32.5434 18.209 32.1839 17.9824 31.8915C17.7558 31.5991 17.4384 31.3904 17.0801 31.2983C15.0273 30.7661 13.159 29.6833 11.6767 28.1667C11.4176 27.9026 11.078 27.7322 10.7113 27.6824C10.3447 27.6326 9.97191 27.7062 9.65174 27.8917L7.84507 28.9367C7.65545 29.0478 7.44572 29.1204 7.22795 29.1502C7.01017 29.1799 6.78866 29.1663 6.57616 29.1102C6.36366 29.054 6.16438 28.9563 5.98977 28.8228C5.81517 28.6893 5.6687 28.5226 5.5588 28.3322C5.4489 28.1419 5.37773 27.9317 5.3494 27.7137C5.32107 27.4957 5.33613 27.2743 5.39372 27.0622C5.45131 26.8501 5.55029 26.6514 5.68496 26.4777C5.81963 26.304 5.98733 26.1586 6.17841 26.05L7.98507 25.0067C8.30499 24.8221 8.55453 24.5365 8.6945 24.1947C8.83448 23.8529 8.85696 23.4743 8.75841 23.1183C8.194 21.0732 8.194 18.9134 8.75841 16.8683C8.85518 16.5131 8.83163 16.1359 8.69143 15.7955C8.55123 15.4551 8.30227 15.1707 7.98341 14.9867L6.17674 13.9433C5.79372 13.7223 5.51419 13.3582 5.39964 12.9311C5.28508 12.504 5.34489 12.0488 5.5659 11.6658C5.78692 11.2828 6.15103 11.0033 6.57815 10.8887C7.00526 10.7742 7.46039 10.834 7.8434 11.055L9.6534 12.1017C9.9727 12.2875 10.3447 12.362 10.711 12.3134C11.0772 12.2649 11.4169 12.096 11.6767 11.8333C13.1602 10.3189 15.0291 9.23837 17.0817 8.70833C17.4411 8.61594 17.7594 8.40625 17.9861 8.1125C18.2129 7.81875 18.3351 7.45774 18.3334 7.08667V5C18.3334 4.55797 18.509 4.13405 18.8216 3.82149C19.1341 3.50893 19.558 3.33333 20.0001 3.33333C20.4421 3.33333 20.866 3.50893 21.1786 3.82149C21.4911 4.13405 21.6667 4.55797 21.6667 5V7.08667C21.6666 7.4566 21.7894 7.81607 22.0161 8.10847C22.2427 8.40086 22.5601 8.60955 22.9184 8.70167C24.9718 9.23359 26.8407 10.3165 28.3234 11.8333C28.5825 12.0974 28.9222 12.2678 29.2888 12.3176C29.6555 12.3674 30.0282 12.2938 30.3484 12.1083L32.1551 11.0633C32.3447 10.9522 32.5544 10.8796 32.7722 10.8498C32.99 10.8201 33.2115 10.8337 33.424 10.8898C33.6365 10.946 33.8358 11.0437 34.0104 11.1772C34.185 11.3107 34.3314 11.4774 34.4413 11.6678C34.5513 11.8581 34.6224 12.0683 34.6507 12.2863C34.6791 12.5043 34.664 12.7257 34.6064 12.9378C34.5488 13.1499 34.4499 13.3486 34.3152 13.5223C34.1805 13.696 34.0128 13.8414 33.8217 13.95L32.0151 14.9933C31.6968 15.1778 31.4486 15.4625 31.309 15.8028C31.1694 16.1432 31.1463 16.5202 31.2434 16.875V16.8733Z" fill="#034EA2"/>
</g>
<defs>
<clipPath id="clip0_278_330">
<rect width="40" height="40" fill="white"/>
</clipPath>
</defs>
</svg>
