<svg width="36" height="40" viewBox="0 0 36 40" fill="none" xmlns="http://www.w3.org/2000/svg">
<path d="M33.4901 23.1667L32.7501 22.74C33.0832 20.9274 33.0832 19.0693 32.7501 17.2567L33.4901 16.83C34.0591 16.5017 34.558 16.0645 34.9581 15.5434C35.3582 15.0224 35.6517 14.4276 35.822 13.793C35.9922 13.1585 36.0358 12.4966 35.9503 11.8453C35.8647 11.1939 35.6517 10.5657 35.3234 9.99667C34.9951 9.42761 34.5579 8.92878 34.0368 8.52867C33.5158 8.12856 32.921 7.83501 32.2864 7.66477C31.6519 7.49453 30.9901 7.45094 30.3387 7.53648C29.6873 7.62202 29.0591 7.83503 28.4901 8.16333L27.7484 8.59167C26.3476 7.39486 24.7379 6.46708 23.0001 5.855V5C23.0001 3.67392 22.4733 2.40215 21.5356 1.46447C20.5979 0.526784 19.3262 0 18.0001 0C16.674 0 15.4022 0.526784 14.4645 1.46447C13.5269 2.40215 13.0001 3.67392 13.0001 5V5.855C11.2624 6.46928 9.65315 7.39933 8.25341 8.59833L7.50841 8.16667C6.35913 7.50363 4.99354 7.32429 3.71204 7.6681C2.43054 8.01192 1.33811 8.85073 0.675072 10C0.0120304 11.1493 -0.167308 12.5149 0.176509 13.7964C0.520325 15.0779 1.35913 16.1703 2.5084 16.8333L3.2484 17.26C2.91525 19.0726 2.91525 20.9307 3.2484 22.7433L2.5084 23.17C1.35913 23.833 0.520325 24.9255 0.176509 26.207C-0.167308 27.4885 0.0120304 28.8541 0.675072 30.0033C1.33811 31.1526 2.43054 31.9914 3.71204 32.3352C4.99354 32.679 6.35913 32.4997 7.50841 31.8367L8.25007 31.4083C9.65135 32.6053 11.2617 33.5331 13.0001 34.145V35C13.0001 36.3261 13.5269 37.5979 14.4645 38.5355C15.4022 39.4732 16.674 40 18.0001 40C19.3262 40 20.5979 39.4732 21.5356 38.5355C22.4733 37.5979 23.0001 36.3261 23.0001 35V34.145C24.7378 33.5307 26.347 32.6007 27.7467 31.4017L28.4917 31.8317C29.641 32.4947 31.0066 32.674 32.2881 32.3302C33.5696 31.9864 34.662 31.1476 35.3251 29.9983C35.9881 28.8491 36.1675 27.4835 35.8236 26.202C35.4798 24.9205 34.641 23.828 33.4917 23.165L33.4901 23.1667ZM29.2434 16.8733C29.8078 18.9184 29.8078 21.0782 29.2434 23.1233C29.1449 23.4793 29.1673 23.8579 29.3073 24.1997C29.4473 24.5415 29.6968 24.8271 30.0167 25.0117L31.8234 26.055C32.2064 26.276 32.486 26.6401 32.6005 27.0672C32.7151 27.4944 32.6553 27.9495 32.4342 28.3325C32.2132 28.7155 31.8491 28.995 31.422 29.1096C30.9949 29.2242 30.5398 29.1643 30.1567 28.9433L28.3467 27.8967C28.0266 27.7112 27.6538 27.6376 27.2871 27.6874C26.9205 27.7372 26.5809 27.9076 26.3217 28.1717C24.8383 29.6861 22.9694 30.7666 20.9167 31.2967C20.5585 31.3888 20.241 31.5975 20.0144 31.8899C19.7878 32.1823 19.6649 32.5417 19.6651 32.9117V35C19.6651 35.442 19.4895 35.866 19.1769 36.1785C18.8644 36.4911 18.4404 36.6667 17.9984 36.6667C17.5564 36.6667 17.1325 36.4911 16.8199 36.1785C16.5073 35.866 16.3317 35.442 16.3317 35V32.9133C16.3319 32.5434 16.209 32.1839 15.9824 31.8915C15.7558 31.5991 15.4384 31.3904 15.0801 31.2983C13.0273 30.7661 11.159 29.6833 9.67674 28.1667C9.41761 27.9026 9.07797 27.7322 8.71133 27.6824C8.3447 27.6326 7.97191 27.7062 7.65174 27.8917L5.84507 28.9367C5.65545 29.0478 5.44572 29.1204 5.22795 29.1502C5.01017 29.1799 4.78866 29.1663 4.57616 29.1102C4.36366 29.054 4.16438 28.9563 3.98977 28.8228C3.81517 28.6893 3.6687 28.5226 3.5588 28.3322C3.4489 28.1419 3.37773 27.9317 3.3494 27.7137C3.32107 27.4957 3.33613 27.2743 3.39372 27.0622C3.45131 26.8501 3.55029 26.6514 3.68496 26.4777C3.81963 26.304 3.98733 26.1586 4.17841 26.05L5.98507 25.0067C6.30499 24.8221 6.55453 24.5365 6.6945 24.1947C6.83448 23.8529 6.85696 23.4743 6.75841 23.1183C6.194 21.0732 6.194 18.9134 6.75841 16.8683C6.85518 16.5131 6.83163 16.1359 6.69143 15.7955C6.55123 15.4551 6.30227 15.1707 5.98341 14.9867L4.17674 13.9433C3.79372 13.7223 3.51419 13.3582 3.39964 12.9311C3.28508 12.504 3.34489 12.0488 3.5659 11.6658C3.78692 11.2828 4.15103 11.0033 4.57815 10.8887C5.00526 10.7742 5.46039 10.834 5.8434 11.055L7.6534 12.1017C7.9727 12.2875 8.34471 12.362 8.71095 12.3134C9.0772 12.2649 9.41692 12.096 9.67674 11.8333C11.1602 10.3189 13.0291 9.23837 15.0817 8.70833C15.4411 8.61594 15.7594 8.40625 15.9861 8.1125C16.2129 7.81875 16.3351 7.45774 16.3334 7.08667V5C16.3334 4.55797 16.509 4.13405 16.8216 3.82149C17.1341 3.50893 17.558 3.33333 18.0001 3.33333C18.4421 3.33333 18.866 3.50893 19.1786 3.82149C19.4911 4.13405 19.6667 4.55797 19.6667 5V7.08667C19.6666 7.4566 19.7894 7.81607 20.0161 8.10847C20.2427 8.40086 20.5601 8.60955 20.9184 8.70167C22.9718 9.23359 24.8407 10.3165 26.3234 11.8333C26.5825 12.0974 26.9222 12.2678 27.2888 12.3176C27.6555 12.3674 28.0282 12.2938 28.3484 12.1083L30.1551 11.0633C30.3447 10.9522 30.5544 10.8796 30.7722 10.8498C30.99 10.8201 31.2115 10.8337 31.424 10.8898C31.6365 10.946 31.8358 11.0437 32.0104 11.1772C32.185 11.3107 32.3314 11.4774 32.4413 11.6678C32.5513 11.8581 32.6224 12.0683 32.6507 12.2863C32.6791 12.5043 32.664 12.7257 32.6064 12.9378C32.5488 13.1499 32.4499 13.3486 32.3152 13.5223C32.1805 13.696 32.0128 13.8414 31.8217 13.95L30.0151 14.9933C29.6968 15.1778 29.4486 15.4625 29.309 15.8028C29.1694 16.1432 29.1463 16.5202 29.2434 16.875V16.8733Z" fill="#034EA2"/>
</svg>
