<svg width="100" height="100" viewBox="0 0 18 18" fill="none" xmlns="http://www.w3.org/2000/svg">
<path fill-rule="evenodd" clip-rule="evenodd" d="M14.5 5.84613C14.5 5.60349 14.3885 5.37462 14.1885 5.23722C13.6793 4.88737 12.6215 4.22983 11.5881 4.01705C11.5295 4.005 11.4699 4 11.4101 4H6.57471C6.52497 4 6.47515 4.00351 6.42611 4.01178C5.27516 4.20572 4.27694 4.86099 3.79947 5.22052C3.60394 5.36774 3.5 5.60137 3.5 5.84613V14.1905C3.5 14.6964 3.87778 15.1226 4.38 15.1833L7 15.5H11L13.62 15.1833C14.1222 15.1226 14.5 14.6964 14.5 14.1905V5.84613ZM14 6.38845C14 5.83466 13.5499 5.38633 12.9961 5.38846L4.99615 5.41925C4.44537 5.42137 4 5.86846 4 6.41924V9.49614C4 10.0499 4.45007 10.4983 5.00385 10.4961L13.0038 10.4653C13.5546 10.4632 14 10.0161 14 9.46535V6.38845ZM6.92013 13.766C7.50204 13.2289 7.50204 12.3095 6.92013 11.7724C6.40048 11.2927 5.59952 11.2927 5.07987 11.7724C4.49796 12.3095 4.49796 13.2289 5.07987 13.766C5.59952 14.2457 6.40048 14.2457 6.92013 13.766ZM11.0799 13.766C10.498 13.2289 10.498 12.3095 11.0799 11.7724C11.5995 11.2927 12.4005 11.2927 12.9201 11.7724C13.502 12.3095 13.502 13.2289 12.9201 13.766C12.4005 14.2457 11.5995 14.2457 11.0799 13.766Z" fill="#ffffff" stroke="#ffffff" stroke-width="0.5" stroke-linecap="round"/>
<path d="M6.5 15L5 16.875M4.5 17.5L5 16.875M11.4997 15L12.9997 16.875M13.4997 17.5L12.9997 16.875M5 16.875H12.9997" stroke="#ffffff" stroke-width="0.5" stroke-linecap="round"/>
<path d="M11.5998 2.9586L8.98513 4.30901C8.83598 4.38605 8.66548 4.38257 8.51802 4.29794L6.16196 2.94586L5.07191 2.32032L6.19514 1.77928L8.54785 0.646014L8.74779 0.549708L8.95045 0.637565L11.5684 1.77249L12.834 2.32113L12.8339 2.32116L11.5998 2.9586Z" stroke="#ffffff" stroke-linecap="round"/>
</svg>
