<svg width="40" height="40" viewBox="0 0 40 40" fill="none" xmlns="http://www.w3.org/2000/svg">
<path d="M38.5353 15.115L25.8936 2.47169C24.329 0.91167 22.2097 0.0356445 20.0003 0.0356445C17.7908 0.0356445 15.6715 0.91167 14.1069 2.47169L1.46526 15.115C0.999307 15.578 0.629881 16.1289 0.378402 16.7357C0.126923 17.3425 -0.00160653 17.9932 0.000264273 18.65V35.0117C0.000264273 36.3378 0.527049 37.6095 1.46473 38.5472C2.40241 39.4849 3.67418 40.0117 5.00027 40.0117H35.0003C36.3264 40.0117 37.5981 39.4849 38.5358 38.5472C39.4735 37.6095 40.0003 36.3378 40.0003 35.0117V18.65C40.0021 17.9932 39.8736 17.3425 39.6221 16.7357C39.3707 16.1289 39.0012 15.578 38.5353 15.115ZM25.0003 36.6784H15.0003V30.1217C15.0003 28.7956 15.5271 27.5238 16.4647 26.5862C17.4024 25.6485 18.6742 25.1217 20.0003 25.1217C21.3263 25.1217 22.5981 25.6485 23.5358 26.5862C24.4735 27.5238 25.0003 28.7956 25.0003 30.1217V36.6784ZM36.6669 35.0117C36.6669 35.4537 36.4913 35.8776 36.1788 36.1902C35.8662 36.5028 35.4423 36.6784 35.0003 36.6784H28.3336V30.1217C28.3336 27.9116 27.4556 25.7919 25.8928 24.2291C24.33 22.6663 22.2104 21.7884 20.0003 21.7884C17.7901 21.7884 15.6705 22.6663 14.1077 24.2291C12.5449 25.7919 11.6669 27.9116 11.6669 30.1217V36.6784H5.00027C4.55824 36.6784 4.13431 36.5028 3.82175 36.1902C3.50919 35.8776 3.3336 35.4537 3.3336 35.0117V18.65C3.33514 18.2083 3.51058 17.785 3.82193 17.4717L16.4636 4.83335C17.4031 3.89824 18.6747 3.37326 20.0003 3.37326C21.3258 3.37326 22.5974 3.89824 23.5369 4.83335L36.1786 17.4767C36.4887 17.7888 36.6641 18.2101 36.6669 18.65V35.0117Z" fill="#034EA2"/>
</svg>
