<svg width="18" height="18" viewBox="0 0 18 18" fill="none" xmlns="http://www.w3.org/2000/svg">
<path d="M5.73611 16.5C5.58084 16.5 5.4277 16.4639 5.28881 16.3944L4 15.75V16.5C4 17.0523 4.44772 17.5 5 17.5C5.55228 17.5 6 17.0523 6 16.5L5.73611 16.5Z" fill="#333333"/>
<path d="M14 15.75L12.7111 16.3944C12.5723 16.4639 12.4192 16.5 12.2639 16.5L12 16.5C12 17.0523 12.4477 17.5 13 17.5C13.5523 17.5 14 17.0523 14 16.5V15.75Z" fill="#333333"/>
<path fill-rule="evenodd" clip-rule="evenodd" d="M11.4028 2.5C11.4674 2.5 11.5319 2.5063 11.5954 2.5186C12.3346 2.66177 13.0857 2.78555 13.6388 2.87173C14.1321 2.94859 14.5 3.37171 14.5 3.87093V6.49998V14.941C14.5 15.2836 14.3064 15.5968 14 15.75L12.7111 16.3944C12.5723 16.4639 12.4192 16.5 12.2639 16.5L12 16.5L6 16.5L5.73611 16.5C5.58084 16.5 5.4277 16.4639 5.28881 16.3944L4 15.75C3.69357 15.5968 3.5 15.2836 3.5 14.941V6.49998V3.8432C3.5 3.35609 3.85038 2.94006 4.33073 2.85923C4.86134 2.76995 5.60187 2.6464 6.41996 2.51304C6.47308 2.50438 6.52704 2.5 6.58086 2.5H11.4028ZM4.5 5.99998C4.5 5.4477 4.94772 4.99998 5.5 4.99998H12.5C13.0523 4.99998 13.5 5.44769 13.5 5.99998V10C13.5 10.5523 13.0523 11 12.5 11H5.5C4.94772 11 4.5 10.5523 4.5 10V5.99998ZM4.5 13.5C4.5 13.2239 4.72386 13 5 13H7C7.27614 13 7.5 13.2239 7.5 13.5V14.5C7.5 14.7761 7.27614 15 7 15H5C4.72386 15 4.5 14.7761 4.5 14.5V13.5ZM11 13C10.7239 13 10.5 13.2239 10.5 13.5V14.5C10.5 14.7761 10.7239 15 11 15H13C13.2761 15 13.5 14.7761 13.5 14.5V13.5C13.5 13.2239 13.2761 13 13 13H11ZM12.5 4C12.5 4.27614 12.2761 4.5 12 4.5H6C5.72386 4.5 5.5 4.27614 5.5 4V3.5C5.5 3.22386 5.72386 3 6 3H12C12.2761 3 12.5 3.22386 12.5 3.5V4Z" fill="#333333"/>
<path d="M4 15.75V15.75C3.69357 15.5968 3.5 15.2836 3.5 14.941V6.49998V3.8432C3.5 3.35609 3.85038 2.94006 4.33073 2.85923C4.86134 2.76995 5.60187 2.6464 6.41996 2.51304C6.47308 2.50438 6.52704 2.5 6.58086 2.5H11.4028C11.4674 2.5 11.5319 2.5063 11.5954 2.5186C12.3346 2.66177 13.0857 2.78555 13.6388 2.87173C14.1321 2.94859 14.5 3.37171 14.5 3.87093V6.49998V14.941C14.5 15.2836 14.3064 15.5968 14 15.75V15.75M4 15.75L5.28881 16.3944C5.4277 16.4639 5.58084 16.5 5.73611 16.5L6 16.5M4 15.75V16.5C4 17.0523 4.44772 17.5 5 17.5V17.5C5.55228 17.5 6 17.0523 6 16.5V16.5M6 16.5L12 16.5M14 15.75L12.7111 16.3944C12.5723 16.4639 12.4192 16.5 12.2639 16.5L12 16.5M14 15.75V16.5C14 17.0523 13.5523 17.5 13 17.5V17.5C12.4477 17.5 12 17.0523 12 16.5V16.5M6 3H12C12.2761 3 12.5 3.22386 12.5 3.5V4C12.5 4.27614 12.2761 4.5 12 4.5H6C5.72386 4.5 5.5 4.27614 5.5 4V3.5C5.5 3.22386 5.72386 3 6 3ZM13.5 13.5V14.5C13.5 14.7761 13.2761 15 13 15H11C10.7239 15 10.5 14.7761 10.5 14.5V13.5C10.5 13.2239 10.7239 13 11 13H13C13.2761 13 13.5 13.2239 13.5 13.5ZM5 15H7C7.27614 15 7.5 14.7761 7.5 14.5V13.5C7.5 13.2239 7.27614 13 7 13H5C4.72386 13 4.5 13.2239 4.5 13.5V14.5C4.5 14.7761 4.72386 15 5 15ZM5.5 11H12.5C13.0523 11 13.5 10.5523 13.5 10V5.99998C13.5 5.44769 13.0523 4.99998 12.5 4.99998H5.5C4.94772 4.99998 4.5 5.4477 4.5 5.99998V10C4.5 10.5523 4.94772 11 5.5 11Z" stroke="#333333" stroke-width="0.5" stroke-linecap="round"/>
<path d="M14.5004 6.5L15.2074 7.207C15.395 7.3946 15.5003 7.64906 15.5003 7.91436L15.5001 8.58605C15.5 8.85111 15.3947 9.1053 15.2073 9.29277L14.5004 10M3.50038 6.5L2.79303 7.20708C2.60541 7.39463 2.5 7.64904 2.5 7.91433V8.58567C2.5 8.85096 2.60541 9.10537 2.79303 9.29292L3.50038 10" stroke="#333333" stroke-linecap="round"/>
</svg>
