<svg width="118" height="141" viewBox="0 0 118 141" fill="none" xmlns="http://www.w3.org/2000/svg">
<path d="M16.852 127.092L19.7016 127.547C21.2682 127.798 24.1349 128.342 26.0727 128.758C29.4497 129.482 29.5962 129.613 29.5962 131.893C29.5962 133.549 29.1171 134.606 28.022 135.373C26.3062 136.575 21.021 136.781 18.4458 135.746C17.0569 135.188 16.852 134.592 16.852 131.098V127.092ZM102.514 127.081V130.63C102.514 132.982 102.143 134.489 101.411 135.096C99.8345 136.404 93.323 136.727 91.188 135.604C89.8819 134.917 89.3609 134 89.2017 132.102L88.9868 129.53L92.7426 128.721C94.8082 128.276 97.8515 127.726 99.5063 127.497L102.514 127.081ZM92.5884 99.6646C94.9705 99.6646 97.7368 102.518 97.7368 104.975C97.7368 105.989 97.0032 107.598 96.1079 108.551C94.1624 110.622 91.4977 110.761 89.1001 108.918C85.4145 106.086 87.8348 99.6644 92.5884 99.6644V99.6646ZM26.5376 99.6646C28.7888 99.6646 31.7192 102.669 31.7192 104.975C31.7192 105.984 30.9386 107.59 29.9829 108.545C26.5519 111.976 21.1001 109.68 21.1001 104.803C21.1001 102.239 23.8244 99.6646 26.5376 99.6646ZM27.0044 95.5727C26.5066 95.5717 25.9761 95.5916 25.4087 95.6312C22.0711 95.8705 21.2692 96.2395 19.2134 98.4828C17.1812 100.7 16.852 101.564 16.852 104.678C16.852 108.753 18.2248 111.612 21.0102 113.34C23.7132 115.018 29.2503 114.873 31.7974 113.059C36.1259 109.977 37.2745 103.936 34.354 99.6021C32.3846 96.6797 30.4887 95.5835 27.0044 95.5728V95.5727ZM92.7427 95.4147C88.7735 95.4147 86.6687 96.3512 84.8266 98.9381C81.4848 103.631 82.6264 110.383 87.2368 113.194C90.0743 114.924 95.1643 114.933 97.7759 113.213C100.697 111.287 101.904 109.194 102.028 105.838C102.257 99.6357 98.4972 95.416 92.7427 95.416V95.4147ZM23.3051 29.575H59.2602C93.1943 29.575 95.2814 29.6479 96.3872 30.8699C97.4187 32.0097 97.5591 34.5351 97.5591 51.9754C97.5591 70.9334 97.4971 71.852 96.1157 73.3348L94.6723 74.8855H59.4263H24.1782L22.6392 73.2469C21.1359 71.6467 21.1001 71.1525 21.1001 52.1648C21.1001 35.7136 21.2691 32.4806 22.2016 31.1492L23.3051 29.575ZM59.8833 24.6238C39.4427 24.6262 24.6856 24.9107 23.1723 25.3308C21.7806 25.7174 19.8688 26.8553 18.9243 27.8601L17.2075 29.6882L16.9829 51.0477C16.7386 74.4579 16.8732 75.3634 20.9575 77.9187C22.6996 79.0087 26.2047 79.0995 60.2934 78.9461L97.7153 78.7783L99.7602 76.3271L101.807 73.8759V52.1747C101.807 30.9858 101.77 30.4295 100.272 28.5244C97.2202 24.6446 96.9711 24.62 59.8833 24.624L59.8833 24.6238ZM44.4634 12.5847V14.7097V16.8327H59.2544C71.749 16.8327 74.1094 16.6672 74.4536 15.7702C74.6777 15.1861 74.6777 14.2312 74.4536 13.6472C74.1094 12.7501 71.749 12.5847 59.2544 12.5847H44.4634ZM58.7388 4.7702C64.2826 4.70255 69.6942 4.93801 73.2212 5.50066C85.7693 7.50185 102.791 11.9749 104.809 13.8014C105.975 14.8567 106.055 18.2058 106.055 66.8131V118.698L104.418 120.6C102.959 122.297 101.716 122.68 92.9145 124.143C83.922 125.638 80.9107 125.782 58.9751 125.756C37.4202 125.73 33.9798 125.567 26.0552 124.174C16.7301 122.536 14.5092 121.722 13.3286 119.516C12.854 118.629 12.6059 100.374 12.6059 66.5455C12.6059 18.2636 12.6854 14.8592 13.8442 13.8639C14.5256 13.2787 15.7198 12.5667 16.4985 12.2819C20.2489 10.9105 37.2147 6.87193 43.4595 5.86393C47.518 5.20883 53.1949 4.83789 58.7388 4.7702ZM59.3696 0.561372C44.9234 0.57649 35.0309 2.14581 18.9341 6.98716C10.1114 9.64066 8.85241 10.9142 8.47704 17.5574L8.19969 22.4598L4.36571 25.7352L0.531738 29.0106L0.727027 39.0282L0.924276 49.0438H2.69381H4.46334L4.64692 40.1942C4.81662 32.0091 4.94916 31.2462 6.41645 30.0262L8.00239 28.7078L8.35785 74.7449L8.71135 120.784L10.3051 122.938C11.5595 124.635 11.8981 126.039 11.8989 129.546C11.8999 135.342 13.5005 138.657 16.852 139.8C19.604 140.738 24.709 140.958 28.0805 140.284C31.6101 139.578 33.8442 136.831 33.8442 133.194V130.104H59.3305H84.8168V132.925C84.8168 135.009 85.33 136.321 86.7856 137.95C88.5077 139.877 89.3301 140.2 93.3344 140.518C98.6967 140.944 103.159 139.918 105.055 137.823C106.086 136.684 106.466 134.992 106.663 130.655C106.869 126.113 107.259 124.481 108.612 122.487L110.301 119.997V74.0829V29.5829C110.333 29.0706 110.364 28.5729 110.399 28.2527L112.073 29.7078C113.768 31.1823 113.842 31.5903 113.852 39.4383C113.863 48.1247 114.271 49.6916 116.405 49.282C117.621 49.0484 117.751 48.1765 117.912 39.1238C118.01 33.6775 117.851 28.9038 117.559 28.5145C117.267 28.1251 115.514 26.5905 113.664 25.1043C110.34 22.4326 110.301 22.3551 110.301 18.2352C110.301 15.9433 109.922 13.2308 109.455 12.2078C108.532 10.1801 104.902 8.04062 100.631 7.00666C99.1365 6.64496 95.2343 5.6601 91.9613 4.81919C79.2314 1.54854 71.5809 0.550185 59.3695 0.561372H59.3696Z" fill="#034EA2"/>
</svg>
