<?xml version="1.0"?>
<svg width="40" height="40" xmlns="http://www.w3.org/2000/svg" xmlns:svg="http://www.w3.org/2000/svg">
 <g class="layer">
  <title>Layer 1</title>
  <path d="m33.7649,25.5515l-6.286699,10.258398c-0.690302,1.133301 -1.6301,2.0942 -2.747801,2.809601c-1.117701,0.715401 -2.3839,1.166401 -3.7022,1.318703c-0.3473,0.041199 -0.6968,0.061798 -1.0466,0.061699c-1.790899,-0.002502 -3.5373,-0.558399 -5,-1.591702c-1.5116,1.132401 -3.378799,1.686001 -5.2634,1.560299c-1.8845,-0.125599 -3.66169,-0.9221 -5.00956,-2.245197c-1.34786,-1.323101 -2.17722,-3.085201 -2.33781,-4.967102c-0.1606,-1.881899 0.3582,-3.758999 1.4624,-5.291298l-2.19167,-2.1884c-0.93584,-0.935902 -1.647805,-2.071402 -2.082579,-3.321501c-0.434773,-1.25 -0.581085,-2.5823 -0.427979,-3.8969c0.153107,-1.3146 0.601664,-2.5776 1.312078,-3.6943c0.71042,-1.1167 1.66428,-2.0582 2.79015,-2.753901l9.61167,-5.943379c2.603701,-1.6687 5.6656,-2.47775 8.7537,-2.31298c3.0882,0.16477 6.0466,1.29503 8.458,3.23131l2.765001,-2.765c0.153698,-0.15918 0.337597,-0.28615 0.540997,-0.3735c0.2033,-0.08735 0.422001,-0.13333 0.643303,-0.13525c0.221298,-0.00192 0.4408,0.04025 0.645599,0.12405c0.2048,0.0838 0.3909,0.20755 0.547398,0.36404c0.156502,0.15649 0.280201,0.34258 0.364002,0.5474c0.083801,0.20483 0.125999,0.4243 0.1241,0.6456c-0.0019,0.2213 -0.047901,0.44 -0.1353,0.64334c-0.087299,0.20334 -0.214302,0.38724 -0.373501,0.54099l-2.7616,2.76333c1.8522,2.32045 2.969902,5.14075 3.210102,8.099951c0.2402,2.959299 -0.408001,5.922998 -1.861801,8.5117zm-21.3233,10.526701l-6.19837,-6.200001c-0.48437,0.866299 -0.67119,1.8675 -0.5318,2.850201c0.13939,0.982597 0.59729,1.892399 1.30347,2.589798c0.712359,0.676701 1.61845,1.113701 2.591499,1.25c0.973001,0.136299 1.9643,-0.035099 2.8352,-0.489998zm16.535001,-26.000001c-1.850801,-1.86862 -4.2871,-3.044981 -6.901402,-3.33228c-2.6143,-0.28731 -5.2479,0.33187 -7.460299,1.75393l-9.62834,5.94335c-0.69826,0.4316 -1.28983,1.0156 -1.7304,1.7082c-0.44058,0.692701 -0.71873,1.476 -0.81364,2.291401c-0.09491,0.815399 -0.00411,1.641699 0.26559,2.417c0.2697,0.775299 0.71132,1.479599 1.29179,2.060101l12.150001,12.151598c0.5814,0.5821 1.287199,1.0247 2.064299,1.294701c0.777102,0.27 1.6054,0.360199 2.422401,0.263901c0.816999,-0.096199 1.601599,-0.376499 2.294699,-0.819599c0.6931,-0.443203 1.276701,-1.0378 1.706902,-1.739002l6.2584,-10.2083c1.2223,-2.195499 1.6961,-4.729399 1.349699,-7.218199c-0.346401,-2.4888 -1.494299,-4.797001 -3.269699,-6.575101l0,0.008301zm2.131599,29.9217c-0.3519,0.000599 -0.695101,-0.110199 -0.9802,-0.316601c-0.285101,-0.206402 -0.497601,-0.4977 -0.607,-0.832298c-0.109301,-0.334503 -0.110001,-0.695103 -0.001801,-1.030102c0.1082,-0.3349 0.319601,-0.626999 0.604,-0.8344c2.9184,-2.194099 4.893501,-5.4156 5.525002,-9.0116c0.0443,-0.216499 0.131199,-0.421999 0.2556,-0.604599c0.1245,-0.1826 0.284,-0.3386 0.469299,-0.459c0.185299,-0.120401 0.3927,-0.202702 0.6101,-0.242201c0.2174,-0.039499 0.440498,-0.0354 0.6563,0.0121c0.215702,0.047501 0.419899,0.137501 0.6007,0.264601c0.180698,0.127199 0.334301,0.289 0.4519,0.476099c0.117599,0.187 0.1968,0.395599 0.233101,0.6136c0.036198,0.218 0.028797,0.441 -0.022003,0.656c-0.816597,4.386099 -3.247597,8.306799 -6.813297,10.988401c-0.285099,0.207798 -0.628799,0.319901 -0.981701,0.32zm-30.44164,-30.435051c-0.30783,-0.001369 -0.60926,-0.08797 -0.870879,-0.25019c-0.261618,-0.16223 -0.473198,-0.39373 -0.611278,-0.66886c-0.138081,-0.275129 -0.197268,-0.583119 -0.170998,-0.88983c0.026269,-0.30671 0.136969,-0.60015 0.319824,-0.84778c2.718301,-3.63236 6.719701,-6.091135 11.188371,-6.875005c0.433101,-0.088406 0.8837,-0.001107 1.252501,0.24269c0.368899,0.243797 0.6257,0.624123 0.7141,1.057305c0.0884,0.43319 0.0011,0.88376 -0.242701,1.25258c-0.243799,0.36882 -0.6241,0.62569 -1.0573,0.71409c-3.67001,0.60604 -6.96292,2.60938 -9.1883,5.59c-0.15437,0.20853 -0.3553,0.37814 -0.58677,0.49532c-0.23148,0.11719 -0.48712,0.17871 -0.74657,0.17968z" fill="#f7941e" id="svg_1"/>
 </g>
</svg>